M48
; DRILL file {KiCad 9.0.1-9.0.1-0~ubuntu24.04.1} date 2025-04-24T02:27:11+0530
; FORMAT={-:-/ absolute / metric / decimal}
; #@! TF.CreationDate,2025-04-24T02:27:11+05:30
; #@! TF.GenerationSoftware,Kicad,Pcbnew,9.0.1-9.0.1-0~ubuntu24.04.1
; #@! TF.FileFunction,Plated,1,2,PTH
FMAT,2
METRIC
; #@! TA.AperFunction,Plated,PTH,ComponentDrill
T1C0.700
; #@! TA.AperFunction,Plated,PTH,ComponentDrill
T2C0.800
; #@! TA.AperFunction,Plated,PTH,ComponentDrill
T3C0.900
; #@! TA.AperFunction,Plated,PTH,ComponentDrill
T4C1.000
; #@! TA.AperFunction,Plated,PTH,ComponentDrill
T5C1.100
; #@! TA.AperFunction,Plated,PTH,ComponentDrill
T6C1.520
%
G90
G05
T1
X70.17Y-85.68
X70.4Y-104.44
X70.4Y-108.69
X77.79Y-85.68
X78.02Y-104.44
X78.02Y-108.69
T2
X58.51Y-79.46
X61.01Y-79.46
X64.0Y-79.455
X64.0Y-112.9
X66.5Y-79.455
X66.5Y-112.9
X70.95Y-81.28
X73.49Y-81.28
X76.03Y-81.28
T3
X74.25Y-94.99
X76.79Y-94.99
T4
X62.49Y-71.0
X62.49Y-119.3
X65.03Y-71.0
X65.03Y-119.3
X67.57Y-71.0
X67.57Y-119.3
X84.0Y-71.0
X84.0Y-73.54
X84.0Y-116.75
X84.0Y-119.29
T5
X59.76Y-85.555
X59.76Y-109.55
X62.3Y-85.555
X62.3Y-109.55
X64.84Y-85.555
X64.84Y-109.55
T6
X72.62Y-73.23
X72.62Y-117.07
X77.7Y-73.23
X77.7Y-117.07
T4
G00X62.15Y-94.742
M15
G01X62.15Y-96.742
M16
G05
G00X64.15Y-100.442
M15
G01X66.15Y-100.442
M16
G05
G00X68.15Y-94.742
M15
G01X68.15Y-96.742
M16
G05
M30
