%TF.GenerationSoftware,KiCad,Pcbnew,9.0.1-9.0.1-0~ubuntu24.04.1*%
%TF.CreationDate,2025-04-24T02:26:26+05:30*%
%TF.ProjectId,Bread-Board-Power-Supply,42726561-642d-4426-9f61-72642d506f77,rev?*%
%TF.SameCoordinates,Original*%
%TF.FileFunction,Copper,L2,Bot*%
%TF.FilePolarity,Positive*%
%FSLAX46Y46*%
G04 Gerber Fmt 4.6, Leading zero omitted, Abs format (unit mm)*
G04 Created by KiCad (PCBNEW 9.0.1-9.0.1-0~ubuntu24.04.1) date 2025-04-24 02:26:26*
%MOMM*%
%LPD*%
G01*
G04 APERTURE LIST*
G04 Aperture macros list*
%AMRoundRect*
0 Rectangle with rounded corners*
0 $1 Rounding radius*
0 $2 $3 $4 $5 $6 $7 $8 $9 X,Y pos of 4 corners*
0 Add a 4 corners polygon primitive as box body*
4,1,4,$2,$3,$4,$5,$6,$7,$8,$9,$2,$3,0*
0 Add four circle primitives for the rounded corners*
1,1,$1+$1,$2,$3*
1,1,$1+$1,$4,$5*
1,1,$1+$1,$6,$7*
1,1,$1+$1,$8,$9*
0 Add four rect primitives between the rounded corners*
20,1,$1+$1,$2,$3,$4,$5,0*
20,1,$1+$1,$4,$5,$6,$7,0*
20,1,$1+$1,$6,$7,$8,$9,0*
20,1,$1+$1,$8,$9,$2,$3,0*%
G04 Aperture macros list end*
%TA.AperFunction,ComponentPad*%
%ADD10C,1.700000*%
%TD*%
%TA.AperFunction,ComponentPad*%
%ADD11R,1.700000X1.700000*%
%TD*%
%TA.AperFunction,ComponentPad*%
%ADD12O,1.400000X1.400000*%
%TD*%
%TA.AperFunction,ComponentPad*%
%ADD13C,1.400000*%
%TD*%
%TA.AperFunction,ComponentPad*%
%ADD14C,3.000000*%
%TD*%
%TA.AperFunction,ComponentPad*%
%ADD15R,3.000000X3.000000*%
%TD*%
%TA.AperFunction,ComponentPad*%
%ADD16C,1.800000*%
%TD*%
%TA.AperFunction,ComponentPad*%
%ADD17R,1.800000X1.800000*%
%TD*%
%TA.AperFunction,ComponentPad*%
%ADD18C,1.600000*%
%TD*%
%TA.AperFunction,ComponentPad*%
%ADD19R,1.500000X1.500000*%
%TD*%
%TA.AperFunction,ComponentPad*%
%ADD20RoundRect,0.875000X-0.875000X-0.875000X0.875000X-0.875000X0.875000X0.875000X-0.875000X0.875000X0*%
%TD*%
%TA.AperFunction,ComponentPad*%
%ADD21RoundRect,0.750000X-0.750000X-1.000000X0.750000X-1.000000X0.750000X1.000000X-0.750000X1.000000X0*%
%TD*%
%TA.AperFunction,ComponentPad*%
%ADD22R,3.500000X3.500000*%
%TD*%
%TA.AperFunction,ComponentPad*%
%ADD23O,1.905000X2.000000*%
%TD*%
%TA.AperFunction,ComponentPad*%
%ADD24R,1.905000X2.000000*%
%TD*%
%TA.AperFunction,Conductor*%
%ADD25C,0.200000*%
%TD*%
G04 APERTURE END LIST*
D10*
%TO.P,J5,3,Pin_3*%
%TO.N,/5V*%
X67570000Y-71000000D03*
%TO.P,J5,2,Pin_2*%
%TO.N,/Power_OUT0*%
X65030000Y-71000000D03*
D11*
%TO.P,J5,1,Pin_1*%
%TO.N,/3.3V*%
X62490000Y-71000000D03*
%TD*%
D12*
%TO.P,R1,2*%
%TO.N,Net-(D1-A)*%
X77790000Y-85680000D03*
D13*
%TO.P,R1,1*%
%TO.N,/12V*%
X70170000Y-85680000D03*
%TD*%
D14*
%TO.P,J6,2,Pin_2*%
%TO.N,/Power_OUT1*%
X72620000Y-117070000D03*
D15*
%TO.P,J6,1,Pin_1*%
%TO.N,GND*%
X77700000Y-117070000D03*
%TD*%
%TO.P,J3,1,Pin_1*%
%TO.N,GND*%
X72620000Y-73230000D03*
D14*
%TO.P,J3,2,Pin_2*%
%TO.N,/Power_OUT0*%
X77700000Y-73230000D03*
%TD*%
D11*
%TO.P,J4,1,Pin_1*%
%TO.N,/3.3V*%
X62490000Y-119300000D03*
D10*
%TO.P,J4,2,Pin_2*%
%TO.N,/Power_OUT1*%
X65030000Y-119300000D03*
%TO.P,J4,3,Pin_3*%
%TO.N,/5V*%
X67570000Y-119300000D03*
%TD*%
D16*
%TO.P,D1,2,A*%
%TO.N,Net-(D1-A)*%
X76790000Y-94990000D03*
D17*
%TO.P,D1,1,K*%
%TO.N,GND*%
X74250000Y-94990000D03*
%TD*%
D18*
%TO.P,SW1,3,A*%
%TO.N,/12V*%
X76030000Y-81280000D03*
%TO.P,SW1,2,C*%
%TO.N,unconnected-(SW1-C-Pad2)*%
X70950000Y-81280000D03*
D19*
%TO.P,SW1,1,B*%
%TO.N,/Power_IN*%
X73490000Y-81280000D03*
%TD*%
D18*
%TO.P,C1,2*%
%TO.N,GND*%
X66500000Y-79455000D03*
%TO.P,C1,1*%
%TO.N,/12V*%
X64000000Y-79455000D03*
%TD*%
D12*
%TO.P,R3,2*%
%TO.N,GND*%
X78020000Y-104440000D03*
D13*
%TO.P,R3,1*%
%TO.N,Net-(U2-ADJ)*%
X70400000Y-104440000D03*
%TD*%
D20*
%TO.P,J7,3*%
%TO.N,GND*%
X65150000Y-100442500D03*
D21*
%TO.P,J7,2*%
X62150000Y-95742500D03*
D22*
%TO.P,J7,1*%
%TO.N,/Power_IN*%
X68150000Y-95742500D03*
%TD*%
D23*
%TO.P,U2,3,VI*%
%TO.N,/12V*%
X64840000Y-109550000D03*
%TO.P,U2,2,VO*%
%TO.N,/3.3V*%
X62300000Y-109550000D03*
D24*
%TO.P,U2,1,ADJ*%
%TO.N,Net-(U2-ADJ)*%
X59760000Y-109550000D03*
%TD*%
D23*
%TO.P,U1,3,VO*%
%TO.N,/5V*%
X59760000Y-85555000D03*
%TO.P,U1,2,GND*%
%TO.N,GND*%
X62300000Y-85555000D03*
D24*
%TO.P,U1,1,VI*%
%TO.N,/12V*%
X64840000Y-85555000D03*
%TD*%
D18*
%TO.P,C3,2*%
%TO.N,GND*%
X66500000Y-112900000D03*
%TO.P,C3,1*%
%TO.N,/3.3V*%
X64000000Y-112900000D03*
%TD*%
%TO.P,C2,2*%
%TO.N,GND*%
X58510000Y-79460000D03*
%TO.P,C2,1*%
%TO.N,/5V*%
X61010000Y-79460000D03*
%TD*%
D12*
%TO.P,R2,2*%
%TO.N,Net-(U2-ADJ)*%
X78020000Y-108690000D03*
D13*
%TO.P,R2,1*%
%TO.N,/3.3V*%
X70400000Y-108690000D03*
%TD*%
D11*
%TO.P,J2,1,Pin_1*%
%TO.N,GND*%
X84000000Y-116750000D03*
D10*
%TO.P,J2,2,Pin_2*%
%TO.N,/Power_OUT1*%
X84000000Y-119290000D03*
%TD*%
D11*
%TO.P,J1,1,Pin_1*%
%TO.N,GND*%
X84000000Y-71000000D03*
D10*
%TO.P,J1,2,Pin_2*%
%TO.N,/Power_OUT0*%
X84000000Y-73540000D03*
%TD*%
D25*
%TO.N,/5V*%
X67570000Y-119300000D02*
X65120000Y-116850000D01*
X65120000Y-116850000D02*
X58600000Y-116850000D01*
X58600000Y-116850000D02*
X54420000Y-112670000D01*
X54420000Y-112670000D02*
X54420000Y-88060000D01*
X54420000Y-88060000D02*
X59760000Y-85555000D01*
%TO.N,/Power_IN*%
X68150000Y-95742500D02*
X73500000Y-90590000D01*
X73500000Y-90590000D02*
X73490000Y-81280000D01*
%TO.N,Net-(U2-ADJ)*%
X59760000Y-109550000D02*
X59750000Y-108820000D01*
X59750000Y-108820000D02*
X70400000Y-104440000D01*
%TD*%
%TA.AperFunction,Conductor*%
%TO.N,GND*%
G36*
X86373397Y-68500730D02*
G01*
X86419203Y-68553490D01*
X86430453Y-68603947D01*
X86464098Y-72189500D01*
X86492632Y-75230500D01*
X86493607Y-75334337D01*
X86474552Y-75401558D01*
X86422180Y-75447806D01*
X86369612Y-75459500D01*
X80924954Y-75459500D01*
X80924045Y-75459260D01*
X80859101Y-75459500D01*
X80794077Y-75459500D01*
X80793583Y-75459567D01*
X80793094Y-75459632D01*
X80792301Y-75459736D01*
X80759643Y-75468615D01*
X80729949Y-75476689D01*
X80729626Y-75476776D01*
X80666808Y-75493608D01*
X80665864Y-75493999D01*
X80665746Y-75494049D01*
X80665124Y-75494306D01*
X80609247Y-75526841D01*
X80608857Y-75527068D01*
X80552680Y-75559503D01*
X80551815Y-75560167D01*
X80551235Y-75560611D01*
X80505598Y-75606585D01*
X80505278Y-75606906D01*
X80459497Y-75652687D01*
X80458899Y-75653465D01*
X80458862Y-75653515D01*
X80458387Y-75654133D01*
X80426122Y-75710490D01*
X80426123Y-75710491D01*
X80425907Y-75710867D01*
X80393608Y-75766814D01*
X80393365Y-75767719D01*
X80392898Y-75768536D01*
X80392895Y-75768547D01*
X80392894Y-75768549D01*
X80376348Y-75831222D01*
X80376347Y-75831221D01*
X80376159Y-75831931D01*
X80359500Y-75894108D01*
X80359500Y-75895043D01*
X80359259Y-75895956D01*
X80359488Y-75957675D01*
X80359500Y-75960994D01*
X80359500Y-76025892D01*
X80359740Y-76026792D01*
X80359773Y-76035635D01*
X80359774Y-76035636D01*
X80499493Y-113899100D01*
X80499492Y-113900184D01*
X80499172Y-113963360D01*
X80499514Y-113966062D01*
X80499707Y-113967593D01*
X80516328Y-114028723D01*
X80516484Y-114029297D01*
X80532635Y-114090820D01*
X80533739Y-114092755D01*
X80534324Y-114094905D01*
X80566089Y-114149459D01*
X80566631Y-114150399D01*
X80597947Y-114205280D01*
X80599457Y-114207269D01*
X80599536Y-114207372D01*
X80600533Y-114208686D01*
X80600637Y-114208789D01*
X80645482Y-114253304D01*
X80646053Y-114253876D01*
X80690660Y-114298938D01*
X80690662Y-114298939D01*
X80692710Y-114300526D01*
X80692755Y-114300561D01*
X80694049Y-114301564D01*
X80694165Y-114301630D01*
X80694166Y-114301631D01*
X80748999Y-114333019D01*
X80749750Y-114333454D01*
X80804453Y-114365407D01*
X80804455Y-114365407D01*
X80804456Y-114365408D01*
X80806769Y-114366380D01*
X80806928Y-114366446D01*
X80808399Y-114367064D01*
X80808533Y-114367099D01*
X80808536Y-114367101D01*
X80869646Y-114383233D01*
X80870566Y-114383481D01*
X80931573Y-114400160D01*
X80931577Y-114400160D01*
X80934137Y-114400510D01*
X80934227Y-114400522D01*
X80935815Y-114400739D01*
X80935953Y-114400738D01*
X80935955Y-114400739D01*
X80999230Y-114400505D01*
X80999905Y-114400505D01*
X86296130Y-114427343D01*
X86363067Y-114447367D01*
X86408554Y-114500402D01*
X86419500Y-114551341D01*
X86419500Y-121374246D01*
X86399815Y-121441285D01*
X86347011Y-121487040D01*
X86295117Y-121498245D01*
X53623652Y-121397234D01*
X53556673Y-121377343D01*
X53511082Y-121324397D01*
X53500035Y-121273471D01*
X53437527Y-88087808D01*
X53814957Y-88087808D01*
X53817566Y-88102406D01*
X53819500Y-88124220D01*
X53819500Y-112583330D01*
X53819499Y-112583348D01*
X53819499Y-112749054D01*
X53819498Y-112749054D01*
X53860423Y-112901785D01*
X53889358Y-112951900D01*
X53889359Y-112951904D01*
X53889360Y-112951904D01*
X53918465Y-113002317D01*
X53939479Y-113038714D01*
X53939481Y-113038717D01*
X54058349Y-113157585D01*
X54058354Y-113157589D01*
X58231284Y-117330520D01*
X58231286Y-117330521D01*
X58231290Y-117330524D01*
X58368209Y-117409573D01*
X58368216Y-117409577D01*
X58520943Y-117450501D01*
X58520945Y-117450501D01*
X58686654Y-117450501D01*
X58686670Y-117450500D01*
X64819903Y-117450500D01*
X64886942Y-117470185D01*
X64907584Y-117486819D01*
X65158584Y-117737819D01*
X65192069Y-117799142D01*
X65187085Y-117868834D01*
X65145213Y-117924767D01*
X65079749Y-117949184D01*
X65070903Y-117949500D01*
X64923713Y-117949500D01*
X64878273Y-117956697D01*
X64713760Y-117982753D01*
X64511585Y-118048444D01*
X64322179Y-118144951D01*
X64150215Y-118269889D01*
X64036673Y-118383431D01*
X63975350Y-118416915D01*
X63905658Y-118411931D01*
X63849725Y-118370059D01*
X63832810Y-118339082D01*
X63783797Y-118207671D01*
X63783793Y-118207664D01*
X63697547Y-118092455D01*
X63697544Y-118092452D01*
X63582335Y-118006206D01*
X63582328Y-118006202D01*
X63447482Y-117955908D01*
X63447483Y-117955908D01*
X63387883Y-117949501D01*
X63387881Y-117949500D01*
X63387873Y-117949500D01*
X63387864Y-117949500D01*
X61592129Y-117949500D01*
X61592123Y-117949501D01*
X61532516Y-117955908D01*
X61397671Y-118006202D01*
X61397664Y-118006206D01*
X61282455Y-118092452D01*
X61282452Y-118092455D01*
X61196206Y-118207664D01*
X61196202Y-118207671D01*
X61145908Y-118342517D01*
X61139501Y-118402116D01*
X61139500Y-118402135D01*
X61139500Y-120197870D01*
X61139501Y-120197876D01*
X61145908Y-120257483D01*
X61196202Y-120392328D01*
X61196206Y-120392335D01*
X61282452Y-120507544D01*
X61282455Y-120507547D01*
X61397664Y-120593793D01*
X61397671Y-120593797D01*
X61532517Y-120644091D01*
X61532516Y-120644091D01*
X61539444Y-120644835D01*
X61592127Y-120650500D01*
X63387872Y-120650499D01*
X63447483Y-120644091D01*
X63582331Y-120593796D01*
X63697546Y-120507546D01*
X63783796Y-120392331D01*
X63832810Y-120260916D01*
X63874681Y-120204984D01*
X63940145Y-120180566D01*
X64008418Y-120195417D01*
X64036673Y-120216569D01*
X64150213Y-120330109D01*
X64322179Y-120455048D01*
X64322181Y-120455049D01*
X64322184Y-120455051D01*
X64511588Y-120551557D01*
X64713757Y-120617246D01*
X64923713Y-120650500D01*
X64923714Y-120650500D01*
X65136286Y-120650500D01*
X65136287Y-120650500D01*
X65346243Y-120617246D01*
X65548412Y-120551557D01*
X65737816Y-120455051D01*
X65824138Y-120392335D01*
X65909786Y-120330109D01*
X65909788Y-120330106D01*
X65909792Y-120330104D01*
X66060104Y-120179792D01*
X66060106Y-120179788D01*
X66060109Y-120179786D01*
X66185048Y-120007820D01*
X66185047Y-120007820D01*
X66185051Y-120007816D01*
X66189514Y-119999054D01*
X66237488Y-119948259D01*
X66305308Y-119931463D01*
X66371444Y-119953999D01*
X66410486Y-119999056D01*
X66414951Y-120007820D01*
X66539890Y-120179786D01*
X66690213Y-120330109D01*
X66862179Y-120455048D01*
X66862181Y-120455049D01*
X66862184Y-120455051D01*
X67051588Y-120551557D01*
X67253757Y-120617246D01*
X67463713Y-120650500D01*
X67463714Y-120650500D01*
X67676286Y-120650500D01*
X67676287Y-120650500D01*
X67886243Y-120617246D01*
X68088412Y-120551557D01*
X68277816Y-120455051D01*
X68364138Y-120392335D01*
X68449786Y-120330109D01*
X68449788Y-120330106D01*
X68449792Y-120330104D01*
X68600104Y-120179792D01*
X68600106Y-120179788D01*
X68600109Y-120179786D01*
X68725048Y-120007820D01*
X68725047Y-120007820D01*
X68725051Y-120007816D01*
X68821557Y-119818412D01*
X68887246Y-119616243D01*
X68920500Y-119406287D01*
X68920500Y-119193713D01*
X68918916Y-119183713D01*
X82649500Y-119183713D01*
X82649500Y-119396287D01*
X82682754Y-119606243D01*
X82686003Y-119616243D01*
X82748444Y-119808414D01*
X82844951Y-119997820D01*
X82969890Y-120169786D01*
X83120213Y-120320109D01*
X83292179Y-120445048D01*
X83292181Y-120445049D01*
X83292184Y-120445051D01*
X83481588Y-120541557D01*
X83683757Y-120607246D01*
X83893713Y-120640500D01*
X83893714Y-120640500D01*
X84106286Y-120640500D01*
X84106287Y-120640500D01*
X84316243Y-120607246D01*
X84518412Y-120541557D01*
X84707816Y-120445051D01*
X84780374Y-120392335D01*
X84879786Y-120320109D01*
X84879788Y-120320106D01*
X84879792Y-120320104D01*
X85030104Y-120169792D01*
X85030106Y-120169788D01*
X85030109Y-120169786D01*
X85155048Y-119997820D01*
X85155047Y-119997820D01*
X85155051Y-119997816D01*
X85251557Y-119808412D01*
X85317246Y-119606243D01*
X85350500Y-119396287D01*
X85350500Y-119183713D01*
X85317246Y-118973757D01*
X85251557Y-118771588D01*
X85155051Y-118582184D01*
X85155049Y-118582181D01*
X85155048Y-118582179D01*
X85030109Y-118410213D01*
X84916181Y-118296285D01*
X84882696Y-118234962D01*
X84887680Y-118165270D01*
X84929552Y-118109337D01*
X84960529Y-118092422D01*
X85092086Y-118043354D01*
X85092093Y-118043350D01*
X85207187Y-117957190D01*
X85207190Y-117957187D01*
X85293350Y-117842093D01*
X85293354Y-117842086D01*
X85343596Y-117707379D01*
X85343598Y-117707372D01*
X85349999Y-117647844D01*
X85350000Y-117647827D01*
X85350000Y-117000000D01*
X84433012Y-117000000D01*
X84465925Y-116942993D01*
X84500000Y-116815826D01*
X84500000Y-116684174D01*
X84465925Y-116557007D01*
X84433012Y-116500000D01*
X85350000Y-116500000D01*
X85350000Y-115852172D01*
X85349999Y-115852155D01*
X85343598Y-115792627D01*
X85343596Y-115792620D01*
X85293354Y-115657913D01*
X85293350Y-115657906D01*
X85207190Y-115542812D01*
X85207187Y-115542809D01*
X85092093Y-115456649D01*
X85092086Y-115456645D01*
X84957379Y-115406403D01*
X84957372Y-115406401D01*
X84897844Y-115400000D01*
X84250000Y-115400000D01*
X84250000Y-116316988D01*
X84192993Y-116284075D01*
X84065826Y-116250000D01*
X83934174Y-116250000D01*
X83807007Y-116284075D01*
X83750000Y-116316988D01*
X83750000Y-115400000D01*
X83102155Y-115400000D01*
X83042627Y-115406401D01*
X83042620Y-115406403D01*
X82907913Y-115456645D01*
X82907906Y-115456649D01*
X82792812Y-115542809D01*
X82792809Y-115542812D01*
X82706649Y-115657906D01*
X82706645Y-115657913D01*
X82656403Y-115792620D01*
X82656401Y-115792627D01*
X82650000Y-115852155D01*
X82650000Y-116500000D01*
X83566988Y-116500000D01*
X83534075Y-116557007D01*
X83500000Y-116684174D01*
X83500000Y-116815826D01*
X83534075Y-116942993D01*
X83566988Y-117000000D01*
X82650000Y-117000000D01*
X82650000Y-117647844D01*
X82656401Y-117707372D01*
X82656403Y-117707379D01*
X82706645Y-117842086D01*
X82706649Y-117842093D01*
X82792809Y-117957187D01*
X82792812Y-117957190D01*
X82907906Y-118043350D01*
X82907913Y-118043354D01*
X83039470Y-118092422D01*
X83095404Y-118134293D01*
X83119821Y-118199758D01*
X83104969Y-118268031D01*
X83083819Y-118296285D01*
X82969889Y-118410215D01*
X82844951Y-118582179D01*
X82748444Y-118771585D01*
X82682753Y-118973760D01*
X82667510Y-119070000D01*
X82649500Y-119183713D01*
X68918916Y-119183713D01*
X68887246Y-118983757D01*
X68821557Y-118781588D01*
X68725051Y-118592184D01*
X68725049Y-118592181D01*
X68725048Y-118592179D01*
X68600109Y-118420213D01*
X68449786Y-118269890D01*
X68277820Y-118144951D01*
X68088414Y-118048444D01*
X68088413Y-118048443D01*
X68088412Y-118048443D01*
X67886243Y-117982754D01*
X67886241Y-117982753D01*
X67886240Y-117982753D01*
X67721727Y-117956697D01*
X67676287Y-117949500D01*
X67463713Y-117949500D01*
X67435006Y-117954046D01*
X67253757Y-117982753D01*
X67211473Y-117996492D01*
X67141632Y-117998486D01*
X67085476Y-117966241D01*
X66058107Y-116938872D01*
X70619500Y-116938872D01*
X70619500Y-117201127D01*
X70646123Y-117403339D01*
X70653730Y-117461116D01*
X70707109Y-117660330D01*
X70721602Y-117714418D01*
X70721605Y-117714428D01*
X70821953Y-117956690D01*
X70821958Y-117956700D01*
X70953075Y-118183803D01*
X71112718Y-118391851D01*
X71112726Y-118391860D01*
X71298140Y-118577274D01*
X71298148Y-118577281D01*
X71298149Y-118577282D01*
X71317563Y-118592179D01*
X71506196Y-118736924D01*
X71733299Y-118868041D01*
X71733309Y-118868046D01*
X71876096Y-118927190D01*
X71975581Y-118968398D01*
X72228884Y-119036270D01*
X72477188Y-119068960D01*
X72485074Y-119069999D01*
X72488880Y-119070500D01*
X72488887Y-119070500D01*
X72751113Y-119070500D01*
X72751120Y-119070500D01*
X73011116Y-119036270D01*
X73264419Y-118968398D01*
X73506697Y-118868043D01*
X73733803Y-118736924D01*
X73941851Y-118577282D01*
X73941855Y-118577277D01*
X73941860Y-118577274D01*
X74127274Y-118391860D01*
X74127277Y-118391855D01*
X74127282Y-118391851D01*
X74286924Y-118183803D01*
X74418043Y-117956697D01*
X74418370Y-117955909D01*
X74465514Y-117842093D01*
X74518398Y-117714419D01*
X74586270Y-117461116D01*
X74620500Y-117201120D01*
X74620500Y-116938880D01*
X74586270Y-116678884D01*
X74518398Y-116425581D01*
X74495160Y-116369479D01*
X74418046Y-116183309D01*
X74418041Y-116183299D01*
X74286924Y-115956196D01*
X74127281Y-115748148D01*
X74127274Y-115748140D01*
X73941860Y-115562726D01*
X73941851Y-115562718D01*
X73888989Y-115522155D01*
X75700000Y-115522155D01*
X75700000Y-116820000D01*
X76980936Y-116820000D01*
X76969207Y-116848316D01*
X76940000Y-116995147D01*
X76940000Y-117144853D01*
X76969207Y-117291684D01*
X76980936Y-117320000D01*
X75700000Y-117320000D01*
X75700000Y-118617844D01*
X75706401Y-118677372D01*
X75706403Y-118677379D01*
X75756645Y-118812086D01*
X75756649Y-118812093D01*
X75842809Y-118927187D01*
X75842812Y-118927190D01*
X75957906Y-119013350D01*
X75957913Y-119013354D01*
X76092620Y-119063596D01*
X76092627Y-119063598D01*
X76152155Y-119069999D01*
X76152172Y-119070000D01*
X77450000Y-119070000D01*
X77450000Y-117789064D01*
X77478316Y-117800793D01*
X77625147Y-117830000D01*
X77774853Y-117830000D01*
X77921684Y-117800793D01*
X77950000Y-117789064D01*
X77950000Y-119070000D01*
X79247828Y-119070000D01*
X79247844Y-119069999D01*
X79307372Y-119063598D01*
X79307376Y-119063597D01*
X79309893Y-119062659D01*
X79309894Y-119062658D01*
X79442086Y-119013354D01*
X79442093Y-119013350D01*
X79557187Y-118927190D01*
X79557190Y-118927187D01*
X79643350Y-118812093D01*
X79643354Y-118812086D01*
X79693596Y-118677379D01*
X79693598Y-118677372D01*
X79699999Y-118617844D01*
X79700000Y-118617827D01*
X79700000Y-117320000D01*
X78419064Y-117320000D01*
X78430793Y-117291684D01*
X78460000Y-117144853D01*
X78460000Y-116995147D01*
X78430793Y-116848316D01*
X78419064Y-116820000D01*
X79700000Y-116820000D01*
X79700000Y-115522172D01*
X79699999Y-115522155D01*
X79693598Y-115462627D01*
X79693596Y-115462620D01*
X79643354Y-115327913D01*
X79643350Y-115327906D01*
X79557190Y-115212812D01*
X79557187Y-115212809D01*
X79442093Y-115126649D01*
X79442086Y-115126645D01*
X79307379Y-115076403D01*
X79307372Y-115076401D01*
X79247844Y-115070000D01*
X77950000Y-115070000D01*
X77950000Y-116350935D01*
X77921684Y-116339207D01*
X77774853Y-116310000D01*
X77625147Y-116310000D01*
X77478316Y-116339207D01*
X77450000Y-116350935D01*
X77450000Y-115070000D01*
X76152155Y-115070000D01*
X76092627Y-115076401D01*
X76092620Y-115076403D01*
X75957913Y-115126645D01*
X75957906Y-115126649D01*
X75842812Y-115212809D01*
X75842809Y-115212812D01*
X75756649Y-115327906D01*
X75756645Y-115327913D01*
X75706403Y-115462620D01*
X75706401Y-115462627D01*
X75700000Y-115522155D01*
X73888989Y-115522155D01*
X73733803Y-115403075D01*
X73506700Y-115271958D01*
X73506690Y-115271953D01*
X73264428Y-115171605D01*
X73264421Y-115171603D01*
X73264419Y-115171602D01*
X73011116Y-115103730D01*
X72953339Y-115096123D01*
X72751127Y-115069500D01*
X72751120Y-115069500D01*
X72488880Y-115069500D01*
X72488872Y-115069500D01*
X72257772Y-115099926D01*
X72228884Y-115103730D01*
X72143364Y-115126645D01*
X71975581Y-115171602D01*
X71975571Y-115171605D01*
X71733309Y-115271953D01*
X71733299Y-115271958D01*
X71506196Y-115403075D01*
X71298148Y-115562718D01*
X71112718Y-115748148D01*
X70953075Y-115956196D01*
X70821958Y-116183299D01*
X70821953Y-116183309D01*
X70721605Y-116425571D01*
X70721602Y-116425581D01*
X70706677Y-116481284D01*
X70653730Y-116678885D01*
X70619500Y-116938872D01*
X66058107Y-116938872D01*
X65607590Y-116488355D01*
X65607588Y-116488352D01*
X65488717Y-116369481D01*
X65488716Y-116369480D01*
X65401904Y-116319360D01*
X65401904Y-116319359D01*
X65401900Y-116319358D01*
X65351785Y-116290423D01*
X65199057Y-116249499D01*
X65040943Y-116249499D01*
X65033347Y-116249499D01*
X65033331Y-116249500D01*
X58900098Y-116249500D01*
X58833059Y-116229815D01*
X58812417Y-116213181D01*
X55396884Y-112797648D01*
X62699500Y-112797648D01*
X62699500Y-113002351D01*
X62731522Y-113204534D01*
X62794781Y-113399223D01*
X62837248Y-113482567D01*
X62887585Y-113581359D01*
X62887715Y-113581613D01*
X63008028Y-113747213D01*
X63152786Y-113891971D01*
X63273226Y-113979474D01*
X63318390Y-114012287D01*
X63434607Y-114071503D01*
X63500776Y-114105218D01*
X63500778Y-114105218D01*
X63500781Y-114105220D01*
X63605137Y-114139127D01*
X63695465Y-114168477D01*
X63796557Y-114184488D01*
X63897648Y-114200500D01*
X63897649Y-114200500D01*
X64102351Y-114200500D01*
X64102352Y-114200500D01*
X64304534Y-114168477D01*
X64499219Y-114105220D01*
X64681610Y-114012287D01*
X64774590Y-113944732D01*
X64847213Y-113891971D01*
X64847215Y-113891968D01*
X64847219Y-113891966D01*
X64991966Y-113747219D01*
X64991968Y-113747215D01*
X64991971Y-113747213D01*
X65112286Y-113581611D01*
X65112415Y-113581359D01*
X65139795Y-113527621D01*
X65187769Y-113476826D01*
X65255589Y-113460030D01*
X65321725Y-113482567D01*
X65360765Y-113527621D01*
X65388141Y-113581350D01*
X65388147Y-113581359D01*
X65420523Y-113625921D01*
X65420524Y-113625922D01*
X66100000Y-112946446D01*
X66100000Y-112952661D01*
X66127259Y-113054394D01*
X66179920Y-113145606D01*
X66254394Y-113220080D01*
X66345606Y-113272741D01*
X66447339Y-113300000D01*
X66453553Y-113300000D01*
X65774076Y-113979474D01*
X65818650Y-114011859D01*
X66000968Y-114104755D01*
X66195582Y-114167990D01*
X66397683Y-114200000D01*
X66602317Y-114200000D01*
X66804417Y-114167990D01*
X66999031Y-114104755D01*
X67181349Y-114011859D01*
X67225921Y-113979474D01*
X66546447Y-113300000D01*
X66552661Y-113300000D01*
X66654394Y-113272741D01*
X66745606Y-113220080D01*
X66820080Y-113145606D01*
X66872741Y-113054394D01*
X66900000Y-112952661D01*
X66900000Y-112946447D01*
X67579474Y-113625921D01*
X67611859Y-113581349D01*
X67704755Y-113399031D01*
X67767990Y-113204417D01*
X67800000Y-113002317D01*
X67800000Y-112797682D01*
X67767990Y-112595582D01*
X67704755Y-112400968D01*
X67611859Y-112218650D01*
X67579474Y-112174077D01*
X67579474Y-112174076D01*
X66900000Y-112853551D01*
X66900000Y-112847339D01*
X66872741Y-112745606D01*
X66820080Y-112654394D01*
X66745606Y-112579920D01*
X66654394Y-112527259D01*
X66552661Y-112500000D01*
X66546446Y-112500000D01*
X67225922Y-111820524D01*
X67225921Y-111820523D01*
X67181359Y-111788147D01*
X67181350Y-111788141D01*
X66999031Y-111695244D01*
X66804417Y-111632009D01*
X66602317Y-111600000D01*
X66397683Y-111600000D01*
X66195582Y-111632009D01*
X66000968Y-111695244D01*
X65818644Y-111788143D01*
X65774077Y-111820523D01*
X65774077Y-111820524D01*
X66453554Y-112500000D01*
X66447339Y-112500000D01*
X66345606Y-112527259D01*
X66254394Y-112579920D01*
X66179920Y-112654394D01*
X66127259Y-112745606D01*
X66100000Y-112847339D01*
X66100000Y-112853553D01*
X65420524Y-112174077D01*
X65420523Y-112174077D01*
X65388143Y-112218644D01*
X65360765Y-112272378D01*
X65312790Y-112323174D01*
X65244969Y-112339969D01*
X65178834Y-112317431D01*
X65139795Y-112272378D01*
X65112284Y-112218385D01*
X64991971Y-112052786D01*
X64847213Y-111908028D01*
X64681613Y-111787715D01*
X64681612Y-111787714D01*
X64681610Y-111787713D01*
X64624653Y-111758691D01*
X64499223Y-111694781D01*
X64304534Y-111631522D01*
X64129995Y-111603878D01*
X64102352Y-111599500D01*
X63897648Y-111599500D01*
X63873329Y-111603351D01*
X63695465Y-111631522D01*
X63500776Y-111694781D01*
X63318386Y-111787715D01*
X63152786Y-111908028D01*
X63008028Y-112052786D01*
X62887715Y-112218386D01*
X62794781Y-112400776D01*
X62731522Y-112595465D01*
X62699500Y-112797648D01*
X55396884Y-112797648D01*
X55056819Y-112457583D01*
X55023334Y-112396260D01*
X55020500Y-112369902D01*
X55020500Y-108502135D01*
X58307000Y-108502135D01*
X58307000Y-110597870D01*
X58307001Y-110597876D01*
X58313408Y-110657483D01*
X58363702Y-110792328D01*
X58363706Y-110792335D01*
X58449952Y-110907544D01*
X58449955Y-110907547D01*
X58565164Y-110993793D01*
X58565171Y-110993797D01*
X58700017Y-111044091D01*
X58700016Y-111044091D01*
X58706944Y-111044835D01*
X58759627Y-111050500D01*
X60760372Y-111050499D01*
X60819983Y-111044091D01*
X60954831Y-110993796D01*
X61070046Y-110907546D01*
X61156296Y-110792331D01*
X61166690Y-110764460D01*
X61208560Y-110708527D01*
X61274023Y-110684108D01*
X61342297Y-110698958D01*
X61355746Y-110707465D01*
X61538462Y-110840217D01*
X61670599Y-110907544D01*
X61742244Y-110944049D01*
X61959751Y-111014721D01*
X61959752Y-111014721D01*
X61959755Y-111014722D01*
X62185646Y-111050500D01*
X62185647Y-111050500D01*
X62414353Y-111050500D01*
X62414354Y-111050500D01*
X62640245Y-111014722D01*
X62640248Y-111014721D01*
X62640249Y-111014721D01*
X62857755Y-110944049D01*
X62857755Y-110944048D01*
X62857758Y-110944048D01*
X63061538Y-110840217D01*
X63246566Y-110705786D01*
X63408286Y-110544066D01*
X63469683Y-110459559D01*
X63525012Y-110416896D01*
X63594625Y-110410917D01*
X63656420Y-110443523D01*
X63670314Y-110459556D01*
X63731714Y-110544066D01*
X63893434Y-110705786D01*
X64078462Y-110840217D01*
X64210599Y-110907544D01*
X64282244Y-110944049D01*
X64499751Y-111014721D01*
X64499752Y-111014721D01*
X64499755Y-111014722D01*
X64725646Y-111050500D01*
X64725647Y-111050500D01*
X64954353Y-111050500D01*
X64954354Y-111050500D01*
X65180245Y-111014722D01*
X65180248Y-111014721D01*
X65180249Y-111014721D01*
X65397755Y-110944049D01*
X65397755Y-110944048D01*
X65397758Y-110944048D01*
X65601538Y-110840217D01*
X65786566Y-110705786D01*
X65948286Y-110544066D01*
X66082717Y-110359038D01*
X66186548Y-110155258D01*
X66257222Y-109937745D01*
X66293000Y-109711854D01*
X66293000Y-109388146D01*
X66257222Y-109162255D01*
X66257221Y-109162251D01*
X66257221Y-109162250D01*
X66186549Y-108944744D01*
X66186548Y-108944742D01*
X66082717Y-108740962D01*
X65977042Y-108595513D01*
X69199500Y-108595513D01*
X69199500Y-108784486D01*
X69229059Y-108971118D01*
X69287454Y-109150836D01*
X69373240Y-109319199D01*
X69484310Y-109472073D01*
X69617927Y-109605690D01*
X69770801Y-109716760D01*
X69850347Y-109757290D01*
X69939163Y-109802545D01*
X69939165Y-109802545D01*
X69939168Y-109802547D01*
X70035497Y-109833846D01*
X70118881Y-109860940D01*
X70305514Y-109890500D01*
X70305519Y-109890500D01*
X70494486Y-109890500D01*
X70681118Y-109860940D01*
X70860832Y-109802547D01*
X71029199Y-109716760D01*
X71182073Y-109605690D01*
X71315690Y-109472073D01*
X71426760Y-109319199D01*
X71512547Y-109150832D01*
X71570940Y-108971118D01*
X71575117Y-108944744D01*
X71600500Y-108784486D01*
X71600500Y-108595513D01*
X76819500Y-108595513D01*
X76819500Y-108784486D01*
X76849059Y-108971118D01*
X76907454Y-109150836D01*
X76993240Y-109319199D01*
X77104310Y-109472073D01*
X77237927Y-109605690D01*
X77390801Y-109716760D01*
X77470347Y-109757290D01*
X77559163Y-109802545D01*
X77559165Y-109802545D01*
X77559168Y-109802547D01*
X77655497Y-109833846D01*
X77738881Y-109860940D01*
X77925514Y-109890500D01*
X77925519Y-109890500D01*
X78114486Y-109890500D01*
X78301118Y-109860940D01*
X78480832Y-109802547D01*
X78649199Y-109716760D01*
X78802073Y-109605690D01*
X78935690Y-109472073D01*
X79046760Y-109319199D01*
X79132547Y-109150832D01*
X79190940Y-108971118D01*
X79195117Y-108944744D01*
X79220500Y-108784486D01*
X79220500Y-108595513D01*
X79190940Y-108408881D01*
X79132545Y-108229163D01*
X79069893Y-108106202D01*
X79046760Y-108060801D01*
X78935690Y-107907927D01*
X78802073Y-107774310D01*
X78649199Y-107663240D01*
X78480836Y-107577454D01*
X78301118Y-107519059D01*
X78114486Y-107489500D01*
X78114481Y-107489500D01*
X77925519Y-107489500D01*
X77925514Y-107489500D01*
X77738881Y-107519059D01*
X77559163Y-107577454D01*
X77390800Y-107663240D01*
X77303579Y-107726610D01*
X77237927Y-107774310D01*
X77237925Y-107774312D01*
X77237924Y-107774312D01*
X77104312Y-107907924D01*
X77104312Y-107907925D01*
X77104310Y-107907927D01*
X77056610Y-107973579D01*
X76993240Y-108060800D01*
X76907454Y-108229163D01*
X76849059Y-108408881D01*
X76819500Y-108595513D01*
X71600500Y-108595513D01*
X71570940Y-108408881D01*
X71512545Y-108229163D01*
X71449893Y-108106202D01*
X71426760Y-108060801D01*
X71315690Y-107907927D01*
X71182073Y-107774310D01*
X71029199Y-107663240D01*
X70860836Y-107577454D01*
X70681118Y-107519059D01*
X70494486Y-107489500D01*
X70494481Y-107489500D01*
X70305519Y-107489500D01*
X70305514Y-107489500D01*
X70118881Y-107519059D01*
X69939163Y-107577454D01*
X69770800Y-107663240D01*
X69683579Y-107726610D01*
X69617927Y-107774310D01*
X69617925Y-107774312D01*
X69617924Y-107774312D01*
X69484312Y-107907924D01*
X69484312Y-107907925D01*
X69484310Y-107907927D01*
X69436610Y-107973579D01*
X69373240Y-108060800D01*
X69287454Y-108229163D01*
X69229059Y-108408881D01*
X69199500Y-108595513D01*
X65977042Y-108595513D01*
X65948286Y-108555934D01*
X65786566Y-108394214D01*
X65601538Y-108259783D01*
X65541443Y-108229163D01*
X65397755Y-108155950D01*
X65180248Y-108085278D01*
X64994812Y-108055908D01*
X64954354Y-108049500D01*
X64725646Y-108049500D01*
X64685188Y-108055908D01*
X64499753Y-108085278D01*
X64499750Y-108085278D01*
X64282244Y-108155950D01*
X64078461Y-108259783D01*
X64012550Y-108307671D01*
X63893434Y-108394214D01*
X63893432Y-108394216D01*
X63893431Y-108394216D01*
X63731715Y-108555932D01*
X63670318Y-108640438D01*
X63614987Y-108683103D01*
X63545374Y-108689082D01*
X63483579Y-108656476D01*
X63469682Y-108640438D01*
X63437042Y-108595513D01*
X63408286Y-108555934D01*
X63246566Y-108394214D01*
X63107246Y-108292992D01*
X63064582Y-108237663D01*
X63058603Y-108168049D01*
X63091209Y-108106255D01*
X63132967Y-108077995D01*
X69602453Y-105417305D01*
X69671940Y-105410012D01*
X69722502Y-105431669D01*
X69770796Y-105466757D01*
X69770798Y-105466758D01*
X69770801Y-105466760D01*
X69846962Y-105505565D01*
X69939163Y-105552545D01*
X69939165Y-105552545D01*
X69939168Y-105552547D01*
X70035497Y-105583846D01*
X70118881Y-105610940D01*
X70305514Y-105640500D01*
X70305519Y-105640500D01*
X70494486Y-105640500D01*
X70681118Y-105610940D01*
X70682623Y-105610451D01*
X70860832Y-105552547D01*
X71029199Y-105466760D01*
X71182073Y-105355690D01*
X71315690Y-105222073D01*
X71426760Y-105069199D01*
X71512547Y-104900832D01*
X71570940Y-104721118D01*
X71575868Y-104690000D01*
X76844638Y-104690000D01*
X76849548Y-104721002D01*
X76907914Y-104900637D01*
X76993670Y-105068940D01*
X77104685Y-105221741D01*
X77104689Y-105221746D01*
X77238253Y-105355310D01*
X77238258Y-105355314D01*
X77391059Y-105466329D01*
X77559362Y-105552085D01*
X77738997Y-105610451D01*
X77770000Y-105615362D01*
X77770000Y-105615361D01*
X78270000Y-105615361D01*
X78301002Y-105610451D01*
X78480637Y-105552085D01*
X78648940Y-105466329D01*
X78801741Y-105355314D01*
X78801746Y-105355310D01*
X78935310Y-105221746D01*
X78935314Y-105221741D01*
X79046329Y-105068940D01*
X79132085Y-104900637D01*
X79190451Y-104721002D01*
X79195362Y-104690000D01*
X78270000Y-104690000D01*
X78270000Y-105615361D01*
X77770000Y-105615361D01*
X77770000Y-104690000D01*
X76844638Y-104690000D01*
X71575868Y-104690000D01*
X71587363Y-104617423D01*
X71600500Y-104534485D01*
X71600500Y-104393922D01*
X77670000Y-104393922D01*
X77670000Y-104486078D01*
X77693852Y-104575095D01*
X77739930Y-104654905D01*
X77805095Y-104720070D01*
X77884905Y-104766148D01*
X77973922Y-104790000D01*
X78066078Y-104790000D01*
X78155095Y-104766148D01*
X78234905Y-104720070D01*
X78300070Y-104654905D01*
X78346148Y-104575095D01*
X78370000Y-104486078D01*
X78370000Y-104393922D01*
X78346148Y-104304905D01*
X78300070Y-104225095D01*
X78264975Y-104190000D01*
X78270000Y-104190000D01*
X79195362Y-104190000D01*
X79190451Y-104158997D01*
X79132085Y-103979362D01*
X79046329Y-103811059D01*
X78935314Y-103658258D01*
X78935310Y-103658253D01*
X78801746Y-103524689D01*
X78801741Y-103524685D01*
X78648940Y-103413670D01*
X78480635Y-103327913D01*
X78301004Y-103269549D01*
X78300995Y-103269547D01*
X78270000Y-103264637D01*
X78270000Y-104190000D01*
X78264975Y-104190000D01*
X78234905Y-104159930D01*
X78155095Y-104113852D01*
X78066078Y-104090000D01*
X77973922Y-104090000D01*
X77884905Y-104113852D01*
X77805095Y-104159930D01*
X77739930Y-104225095D01*
X77693852Y-104304905D01*
X77670000Y-104393922D01*
X71600500Y-104393922D01*
X71600500Y-104345514D01*
X71584811Y-104246462D01*
X71584811Y-104246460D01*
X71575869Y-104190000D01*
X76844638Y-104190000D01*
X77770000Y-104190000D01*
X77770000Y-103264637D01*
X77769999Y-103264637D01*
X77739004Y-103269547D01*
X77738995Y-103269549D01*
X77559364Y-103327913D01*
X77391059Y-103413670D01*
X77238258Y-103524685D01*
X77238253Y-103524689D01*
X77104689Y-103658253D01*
X77104685Y-103658258D01*
X76993670Y-103811059D01*
X76907914Y-103979362D01*
X76849548Y-104158997D01*
X76844638Y-104190000D01*
X71575869Y-104190000D01*
X71570940Y-104158882D01*
X71570940Y-104158881D01*
X71512545Y-103979163D01*
X71426759Y-103810800D01*
X71315690Y-103657927D01*
X71182073Y-103524310D01*
X71029199Y-103413240D01*
X70860836Y-103327454D01*
X70681118Y-103269059D01*
X70494486Y-103239500D01*
X70494481Y-103239500D01*
X70305519Y-103239500D01*
X70305514Y-103239500D01*
X70118881Y-103269059D01*
X69939163Y-103327454D01*
X69770800Y-103413240D01*
X69683579Y-103476610D01*
X69617927Y-103524310D01*
X69617925Y-103524312D01*
X69617924Y-103524312D01*
X69484312Y-103657924D01*
X69484312Y-103657925D01*
X69484310Y-103657927D01*
X69484070Y-103658258D01*
X69373240Y-103810800D01*
X69287454Y-103979165D01*
X69229059Y-104158884D01*
X69220745Y-104211378D01*
X69190815Y-104274512D01*
X69145436Y-104306659D01*
X60067356Y-108040180D01*
X60020192Y-108049500D01*
X58759629Y-108049500D01*
X58759623Y-108049501D01*
X58700016Y-108055908D01*
X58565171Y-108106202D01*
X58565164Y-108106206D01*
X58449955Y-108192452D01*
X58449952Y-108192455D01*
X58363706Y-108307664D01*
X58363702Y-108307671D01*
X58313408Y-108442517D01*
X58307001Y-108502116D01*
X58307000Y-108502135D01*
X55020500Y-108502135D01*
X55020500Y-99473921D01*
X62900000Y-99473921D01*
X62900000Y-100192500D01*
X63716988Y-100192500D01*
X63684075Y-100249507D01*
X63650000Y-100376674D01*
X63650000Y-100508326D01*
X63684075Y-100635493D01*
X63716988Y-100692500D01*
X62900001Y-100692500D01*
X62900001Y-101411088D01*
X62902794Y-101463691D01*
X62947237Y-101693487D01*
X63029879Y-101912475D01*
X63148339Y-102114341D01*
X63148344Y-102114348D01*
X63299211Y-102293286D01*
X63299213Y-102293288D01*
X63478151Y-102444155D01*
X63478158Y-102444160D01*
X63680024Y-102562620D01*
X63899012Y-102645262D01*
X64128809Y-102689705D01*
X64181382Y-102692498D01*
X64181421Y-102692499D01*
X64899999Y-102692499D01*
X64900000Y-102692498D01*
X64900000Y-100942500D01*
X65400000Y-100942500D01*
X65400000Y-102692499D01*
X66118576Y-102692499D01*
X66118588Y-102692498D01*
X66171191Y-102689705D01*
X66400987Y-102645262D01*
X66619975Y-102562620D01*
X66821841Y-102444160D01*
X66821848Y-102444155D01*
X67000786Y-102293288D01*
X67000788Y-102293286D01*
X67151655Y-102114348D01*
X67151660Y-102114341D01*
X67270120Y-101912475D01*
X67352762Y-101693487D01*
X67397205Y-101463691D01*
X67397205Y-101463690D01*
X67399998Y-101411117D01*
X67400000Y-101411078D01*
X67400000Y-100692500D01*
X66583012Y-100692500D01*
X66615925Y-100635493D01*
X66650000Y-100508326D01*
X66650000Y-100376674D01*
X66615925Y-100249507D01*
X66583012Y-100192500D01*
X67399999Y-100192500D01*
X67399999Y-99473923D01*
X67399998Y-99473911D01*
X67397205Y-99421308D01*
X67352762Y-99191512D01*
X67270120Y-98972524D01*
X67151660Y-98770658D01*
X67151655Y-98770651D01*
X67000788Y-98591713D01*
X67000786Y-98591711D01*
X66821848Y-98440844D01*
X66821841Y-98440839D01*
X66619975Y-98322379D01*
X66400984Y-98239736D01*
X66395840Y-98238741D01*
X66333760Y-98206680D01*
X66298869Y-98146146D01*
X66302244Y-98076358D01*
X66342814Y-98019473D01*
X66407697Y-97993552D01*
X66419374Y-97992999D01*
X69947872Y-97992999D01*
X70007483Y-97986591D01*
X70142331Y-97936296D01*
X70257546Y-97850046D01*
X70343796Y-97734831D01*
X70394091Y-97599983D01*
X70400500Y-97540373D01*
X70400499Y-94461519D01*
X70420184Y-94394481D01*
X70438482Y-94372206D01*
X70781184Y-94042155D01*
X72850000Y-94042155D01*
X72850000Y-94740000D01*
X73874722Y-94740000D01*
X73830667Y-94816306D01*
X73800000Y-94930756D01*
X73800000Y-95049244D01*
X73830667Y-95163694D01*
X73874722Y-95240000D01*
X72850000Y-95240000D01*
X72850000Y-95937844D01*
X72856401Y-95997372D01*
X72856403Y-95997379D01*
X72906645Y-96132086D01*
X72906649Y-96132093D01*
X72992809Y-96247187D01*
X72992812Y-96247190D01*
X73107906Y-96333350D01*
X73107913Y-96333354D01*
X73242620Y-96383596D01*
X73242627Y-96383598D01*
X73302155Y-96389999D01*
X73302172Y-96390000D01*
X74000000Y-96390000D01*
X74000000Y-95365277D01*
X74076306Y-95409333D01*
X74190756Y-95440000D01*
X74309244Y-95440000D01*
X74423694Y-95409333D01*
X74500000Y-95365277D01*
X74500000Y-96390000D01*
X75197828Y-96390000D01*
X75197844Y-96389999D01*
X75257372Y-96383598D01*
X75257379Y-96383596D01*
X75392086Y-96333354D01*
X75392093Y-96333350D01*
X75507187Y-96247190D01*
X75507190Y-96247187D01*
X75593350Y-96132093D01*
X75593354Y-96132086D01*
X75623213Y-96052031D01*
X75665084Y-95996097D01*
X75730548Y-95971680D01*
X75798821Y-95986531D01*
X75827076Y-96007683D01*
X75877636Y-96058243D01*
X75877641Y-96058247D01*
X76033192Y-96171260D01*
X76055978Y-96187815D01*
X76172501Y-96247187D01*
X76252393Y-96287895D01*
X76252396Y-96287896D01*
X76357221Y-96321955D01*
X76462049Y-96356015D01*
X76679778Y-96390500D01*
X76679779Y-96390500D01*
X76900221Y-96390500D01*
X76900222Y-96390500D01*
X77117951Y-96356015D01*
X77327606Y-96287895D01*
X77524022Y-96187815D01*
X77702365Y-96058242D01*
X77858242Y-95902365D01*
X77987815Y-95724022D01*
X78087895Y-95527606D01*
X78156015Y-95317951D01*
X78190500Y-95100222D01*
X78190500Y-94879778D01*
X78156015Y-94662049D01*
X78118363Y-94546167D01*
X78087896Y-94452396D01*
X78087895Y-94452393D01*
X78024502Y-94327980D01*
X77987815Y-94255978D01*
X77971260Y-94233192D01*
X77858247Y-94077641D01*
X77858243Y-94077636D01*
X77702363Y-93921756D01*
X77702358Y-93921752D01*
X77524025Y-93792187D01*
X77524024Y-93792186D01*
X77524022Y-93792185D01*
X77441552Y-93750164D01*
X77327606Y-93692104D01*
X77327603Y-93692103D01*
X77117952Y-93623985D01*
X77009086Y-93606742D01*
X76900222Y-93589500D01*
X76679778Y-93589500D01*
X76607201Y-93600995D01*
X76462047Y-93623985D01*
X76252396Y-93692103D01*
X76252393Y-93692104D01*
X76055974Y-93792187D01*
X75877641Y-93921752D01*
X75877636Y-93921756D01*
X75827075Y-93972317D01*
X75765752Y-94005801D01*
X75696060Y-94000816D01*
X75640127Y-93958945D01*
X75623213Y-93927968D01*
X75593354Y-93847913D01*
X75593350Y-93847906D01*
X75507190Y-93732812D01*
X75507187Y-93732809D01*
X75392093Y-93646649D01*
X75392086Y-93646645D01*
X75257379Y-93596403D01*
X75257372Y-93596401D01*
X75197844Y-93590000D01*
X74500000Y-93590000D01*
X74500000Y-94614722D01*
X74423694Y-94570667D01*
X74309244Y-94540000D01*
X74190756Y-94540000D01*
X74076306Y-94570667D01*
X74000000Y-94614722D01*
X74000000Y-93590000D01*
X73302155Y-93590000D01*
X73242627Y-93596401D01*
X73242620Y-93596403D01*
X73107913Y-93646645D01*
X73107906Y-93646649D01*
X72992812Y-93732809D01*
X72992809Y-93732812D01*
X72906649Y-93847906D01*
X72906645Y-93847913D01*
X72856403Y-93982620D01*
X72856401Y-93982627D01*
X72850000Y-94042155D01*
X70781184Y-94042155D01*
X73863983Y-91073160D01*
X73869232Y-91070123D01*
X73920869Y-91018374D01*
X73973502Y-90967685D01*
X73973503Y-90967682D01*
X73977256Y-90962976D01*
X73980909Y-90958205D01*
X73980916Y-90958199D01*
X74016813Y-90895867D01*
X74018037Y-90893791D01*
X74055120Y-90832265D01*
X74055122Y-90832256D01*
X74057538Y-90826720D01*
X74059823Y-90821188D01*
X74059823Y-90821186D01*
X74059826Y-90821182D01*
X74078360Y-90751706D01*
X74079004Y-90749390D01*
X74098908Y-90680334D01*
X74098908Y-90680323D01*
X74099801Y-90674398D01*
X74100583Y-90668418D01*
X74100585Y-90668412D01*
X74100507Y-90596528D01*
X74100529Y-90594093D01*
X74101881Y-90522247D01*
X74101878Y-90522237D01*
X74101185Y-90516074D01*
X74100405Y-90502338D01*
X74095124Y-85585513D01*
X76589500Y-85585513D01*
X76589500Y-85774486D01*
X76619059Y-85961118D01*
X76677454Y-86140836D01*
X76763240Y-86309199D01*
X76874310Y-86462073D01*
X77007927Y-86595690D01*
X77160801Y-86706760D01*
X77240347Y-86747290D01*
X77329163Y-86792545D01*
X77329165Y-86792545D01*
X77329168Y-86792547D01*
X77425497Y-86823846D01*
X77508881Y-86850940D01*
X77695514Y-86880500D01*
X77695519Y-86880500D01*
X77884486Y-86880500D01*
X78071118Y-86850940D01*
X78088731Y-86845217D01*
X78250832Y-86792547D01*
X78419199Y-86706760D01*
X78572073Y-86595690D01*
X78705690Y-86462073D01*
X78816760Y-86309199D01*
X78902547Y-86140832D01*
X78960940Y-85961118D01*
X78971775Y-85892708D01*
X78990500Y-85774486D01*
X78990500Y-85585513D01*
X78960940Y-85398881D01*
X78902545Y-85219163D01*
X78816759Y-85050800D01*
X78783483Y-85005000D01*
X78705690Y-84897927D01*
X78572073Y-84764310D01*
X78419199Y-84653240D01*
X78404723Y-84645864D01*
X78250836Y-84567454D01*
X78071118Y-84509059D01*
X77884486Y-84479500D01*
X77884481Y-84479500D01*
X77695519Y-84479500D01*
X77695514Y-84479500D01*
X77508881Y-84509059D01*
X77329163Y-84567454D01*
X77160800Y-84653240D01*
X77073579Y-84716610D01*
X77007927Y-84764310D01*
X77007925Y-84764312D01*
X77007924Y-84764312D01*
X76874312Y-84897924D01*
X76874312Y-84897925D01*
X76874310Y-84897927D01*
X76836664Y-84949742D01*
X76763240Y-85050800D01*
X76677454Y-85219163D01*
X76619059Y-85398881D01*
X76589500Y-85585513D01*
X74095124Y-85585513D01*
X74091976Y-82654630D01*
X74111589Y-82587572D01*
X74164343Y-82541760D01*
X74215976Y-82530499D01*
X74287871Y-82530499D01*
X74287872Y-82530499D01*
X74347483Y-82524091D01*
X74482331Y-82473796D01*
X74597546Y-82387546D01*
X74683796Y-82272331D01*
X74734091Y-82137483D01*
X74739823Y-82084162D01*
X74766560Y-82019615D01*
X74823952Y-81979767D01*
X74893777Y-81977273D01*
X74953866Y-82012925D01*
X74963430Y-82024536D01*
X75038028Y-82127212D01*
X75038032Y-82127217D01*
X75182786Y-82271971D01*
X75337749Y-82384556D01*
X75348390Y-82392287D01*
X75464607Y-82451503D01*
X75530776Y-82485218D01*
X75530778Y-82485218D01*
X75530781Y-82485220D01*
X75635137Y-82519127D01*
X75725465Y-82548477D01*
X75826557Y-82564488D01*
X75927648Y-82580500D01*
X75927649Y-82580500D01*
X76132351Y-82580500D01*
X76132352Y-82580500D01*
X76334534Y-82548477D01*
X76529219Y-82485220D01*
X76711610Y-82392287D01*
X76804590Y-82324732D01*
X76877213Y-82271971D01*
X76877215Y-82271968D01*
X76877219Y-82271966D01*
X77021966Y-82127219D01*
X77021968Y-82127215D01*
X77021971Y-82127213D01*
X77100144Y-82019615D01*
X77142287Y-81961610D01*
X77235220Y-81779219D01*
X77298477Y-81584534D01*
X77330500Y-81382352D01*
X77330500Y-81177648D01*
X77298477Y-80975465D01*
X77235218Y-80780776D01*
X77201503Y-80714607D01*
X77142287Y-80598390D01*
X77119690Y-80567287D01*
X77021971Y-80432786D01*
X76877213Y-80288028D01*
X76711613Y-80167715D01*
X76711612Y-80167714D01*
X76711610Y-80167713D01*
X76650055Y-80136349D01*
X76529223Y-80074781D01*
X76334534Y-80011522D01*
X76159995Y-79983878D01*
X76132352Y-79979500D01*
X75927648Y-79979500D01*
X75903329Y-79983351D01*
X75725465Y-80011522D01*
X75530776Y-80074781D01*
X75348386Y-80167715D01*
X75182786Y-80288028D01*
X75038032Y-80432782D01*
X75038028Y-80432787D01*
X74963430Y-80535463D01*
X74908100Y-80578129D01*
X74838487Y-80584108D01*
X74776692Y-80551502D01*
X74742334Y-80490664D01*
X74739822Y-80475831D01*
X74734091Y-80422516D01*
X74683797Y-80287671D01*
X74683793Y-80287664D01*
X74597547Y-80172455D01*
X74597544Y-80172452D01*
X74482335Y-80086206D01*
X74482328Y-80086202D01*
X74347482Y-80035908D01*
X74347483Y-80035908D01*
X74287883Y-80029501D01*
X74287881Y-80029500D01*
X74287873Y-80029500D01*
X74287864Y-80029500D01*
X72692129Y-80029500D01*
X72692123Y-80029501D01*
X72632516Y-80035908D01*
X72497671Y-80086202D01*
X72497664Y-80086206D01*
X72382455Y-80172452D01*
X72382452Y-80172455D01*
X72296206Y-80287664D01*
X72296202Y-80287671D01*
X72245908Y-80422516D01*
X72240176Y-80475834D01*
X72213438Y-80540385D01*
X72156045Y-80580233D01*
X72086220Y-80582726D01*
X72026131Y-80547073D01*
X72016569Y-80535463D01*
X71941971Y-80432786D01*
X71797213Y-80288028D01*
X71631613Y-80167715D01*
X71631612Y-80167714D01*
X71631610Y-80167713D01*
X71570055Y-80136349D01*
X71449223Y-80074781D01*
X71254534Y-80011522D01*
X71079995Y-79983878D01*
X71052352Y-79979500D01*
X70847648Y-79979500D01*
X70823329Y-79983351D01*
X70645465Y-80011522D01*
X70450776Y-80074781D01*
X70268386Y-80167715D01*
X70102786Y-80288028D01*
X69958028Y-80432786D01*
X69837715Y-80598386D01*
X69744781Y-80780776D01*
X69681522Y-80975465D01*
X69649500Y-81177648D01*
X69649500Y-81382351D01*
X69681522Y-81584534D01*
X69744781Y-81779223D01*
X69837715Y-81961613D01*
X69958028Y-82127213D01*
X70102786Y-82271971D01*
X70257749Y-82384556D01*
X70268390Y-82392287D01*
X70384607Y-82451503D01*
X70450776Y-82485218D01*
X70450778Y-82485218D01*
X70450781Y-82485220D01*
X70555137Y-82519127D01*
X70645465Y-82548477D01*
X70746557Y-82564488D01*
X70847648Y-82580500D01*
X70847649Y-82580500D01*
X71052351Y-82580500D01*
X71052352Y-82580500D01*
X71254534Y-82548477D01*
X71449219Y-82485220D01*
X71631610Y-82392287D01*
X71724590Y-82324732D01*
X71797213Y-82271971D01*
X71797215Y-82271968D01*
X71797219Y-82271966D01*
X71941966Y-82127219D01*
X72016568Y-82024536D01*
X72071898Y-81981870D01*
X72141511Y-81975891D01*
X72203306Y-82008496D01*
X72237664Y-82069334D01*
X72240177Y-82084166D01*
X72245909Y-82137483D01*
X72296202Y-82272328D01*
X72296206Y-82272335D01*
X72382452Y-82387544D01*
X72382455Y-82387547D01*
X72497664Y-82473793D01*
X72497671Y-82473797D01*
X72528293Y-82485218D01*
X72632517Y-82524091D01*
X72692127Y-82530500D01*
X72766975Y-82530499D01*
X72834013Y-82550183D01*
X72879769Y-82602986D01*
X72890975Y-82654366D01*
X72899168Y-90282077D01*
X72879555Y-90349137D01*
X72861185Y-90371524D01*
X69657114Y-93457314D01*
X69595172Y-93489640D01*
X69571097Y-93492000D01*
X66352129Y-93492000D01*
X66352123Y-93492001D01*
X66292516Y-93498408D01*
X66157671Y-93548702D01*
X66157664Y-93548706D01*
X66042455Y-93634952D01*
X66042452Y-93634955D01*
X65956206Y-93750164D01*
X65956202Y-93750171D01*
X65905908Y-93885017D01*
X65899501Y-93944616D01*
X65899500Y-93944635D01*
X65899500Y-97540370D01*
X65899501Y-97540376D01*
X65905908Y-97599983D01*
X65956202Y-97734828D01*
X65956206Y-97734835D01*
X66042452Y-97850044D01*
X66042455Y-97850047D01*
X66157664Y-97936293D01*
X66157673Y-97936298D01*
X66206506Y-97954511D01*
X66262440Y-97996381D01*
X66286858Y-98061845D01*
X66272007Y-98130118D01*
X66222603Y-98179524D01*
X66156598Y-98194518D01*
X66118625Y-98192501D01*
X66118579Y-98192500D01*
X65400000Y-98192500D01*
X65400000Y-99942500D01*
X64900000Y-99942500D01*
X64900000Y-98192500D01*
X64181423Y-98192500D01*
X64181411Y-98192501D01*
X64128808Y-98195294D01*
X63899012Y-98239737D01*
X63680024Y-98322379D01*
X63478158Y-98440839D01*
X63478151Y-98440844D01*
X63299213Y-98591711D01*
X63299211Y-98591713D01*
X63148344Y-98770651D01*
X63148339Y-98770658D01*
X63029879Y-98972524D01*
X62947237Y-99191512D01*
X62902794Y-99421308D01*
X62902794Y-99421309D01*
X62900001Y-99473882D01*
X62900000Y-99473921D01*
X55020500Y-99473921D01*
X55020500Y-94678303D01*
X60150000Y-94678303D01*
X60150000Y-95492500D01*
X61650000Y-95492500D01*
X61650000Y-95992500D01*
X60150001Y-95992500D01*
X60150001Y-96806697D01*
X60160400Y-96938832D01*
X60215377Y-97157019D01*
X60308428Y-97361874D01*
X60308431Y-97361880D01*
X60436559Y-97546823D01*
X60436569Y-97546835D01*
X60595664Y-97705930D01*
X60595676Y-97705940D01*
X60780619Y-97834068D01*
X60780625Y-97834071D01*
X60985480Y-97927122D01*
X61203667Y-97982099D01*
X61335810Y-97992499D01*
X61899999Y-97992499D01*
X61900000Y-97992498D01*
X61900000Y-97175512D01*
X61957007Y-97208425D01*
X62084174Y-97242500D01*
X62215826Y-97242500D01*
X62342993Y-97208425D01*
X62400000Y-97175512D01*
X62400000Y-97992499D01*
X62964182Y-97992499D01*
X62964197Y-97992498D01*
X63096332Y-97982099D01*
X63314519Y-97927122D01*
X63519374Y-97834071D01*
X63519380Y-97834068D01*
X63704323Y-97705940D01*
X63704335Y-97705930D01*
X63863430Y-97546835D01*
X63863440Y-97546823D01*
X63991568Y-97361880D01*
X63991571Y-97361874D01*
X64084622Y-97157019D01*
X64139599Y-96938832D01*
X64149999Y-96806696D01*
X64150000Y-96806684D01*
X64150000Y-95992500D01*
X62650000Y-95992500D01*
X62650000Y-95492500D01*
X64149999Y-95492500D01*
X64149999Y-94678317D01*
X64149998Y-94678302D01*
X64139599Y-94546167D01*
X64084622Y-94327980D01*
X63991571Y-94123125D01*
X63991568Y-94123119D01*
X63863440Y-93938176D01*
X63863430Y-93938164D01*
X63704335Y-93779069D01*
X63704323Y-93779059D01*
X63519380Y-93650931D01*
X63519374Y-93650928D01*
X63314519Y-93557877D01*
X63096332Y-93502900D01*
X62964196Y-93492500D01*
X62400000Y-93492500D01*
X62400000Y-94309488D01*
X62342993Y-94276575D01*
X62215826Y-94242500D01*
X62084174Y-94242500D01*
X61957007Y-94276575D01*
X61900000Y-94309488D01*
X61900000Y-93492500D01*
X61335817Y-93492500D01*
X61335802Y-93492501D01*
X61203667Y-93502900D01*
X60985480Y-93557877D01*
X60780625Y-93650928D01*
X60780619Y-93650931D01*
X60595676Y-93779059D01*
X60595664Y-93779069D01*
X60436569Y-93938164D01*
X60436559Y-93938176D01*
X60308431Y-94123119D01*
X60308428Y-94123125D01*
X60215377Y-94327980D01*
X60160400Y-94546167D01*
X60150000Y-94678303D01*
X55020500Y-94678303D01*
X55020500Y-88520391D01*
X55040185Y-88453352D01*
X55091837Y-88408129D01*
X58706603Y-86712437D01*
X58775654Y-86701788D01*
X58832145Y-86724380D01*
X58998462Y-86845217D01*
X59067709Y-86880500D01*
X59202244Y-86949049D01*
X59419751Y-87019721D01*
X59419752Y-87019721D01*
X59419755Y-87019722D01*
X59645646Y-87055500D01*
X59645647Y-87055500D01*
X59874353Y-87055500D01*
X59874354Y-87055500D01*
X60100245Y-87019722D01*
X60100248Y-87019721D01*
X60100249Y-87019721D01*
X60317755Y-86949049D01*
X60317755Y-86949048D01*
X60317758Y-86949048D01*
X60521538Y-86845217D01*
X60706566Y-86710786D01*
X60868286Y-86549066D01*
X60929992Y-86464134D01*
X60985319Y-86421470D01*
X61054932Y-86415491D01*
X61116727Y-86448096D01*
X61130626Y-86464135D01*
X61192097Y-86548741D01*
X61192097Y-86548742D01*
X61353757Y-86710402D01*
X61538723Y-86844788D01*
X61742429Y-86948582D01*
X61959871Y-87019234D01*
X62050000Y-87033509D01*
X62050000Y-86045747D01*
X62087708Y-86067518D01*
X62227591Y-86105000D01*
X62372409Y-86105000D01*
X62512292Y-86067518D01*
X62550000Y-86045747D01*
X62550000Y-87033508D01*
X62640128Y-87019234D01*
X62857570Y-86948582D01*
X63061276Y-86844788D01*
X63244059Y-86711988D01*
X63309865Y-86688508D01*
X63377919Y-86704333D01*
X63426614Y-86754439D01*
X63433127Y-86768974D01*
X63443701Y-86797326D01*
X63443706Y-86797335D01*
X63529952Y-86912544D01*
X63529955Y-86912547D01*
X63645164Y-86998793D01*
X63645171Y-86998797D01*
X63780017Y-87049091D01*
X63780016Y-87049091D01*
X63786944Y-87049835D01*
X63839627Y-87055500D01*
X65840372Y-87055499D01*
X65899983Y-87049091D01*
X66034831Y-86998796D01*
X66150046Y-86912546D01*
X66236296Y-86797331D01*
X66286591Y-86662483D01*
X66293000Y-86602873D01*
X66292999Y-85585513D01*
X68969500Y-85585513D01*
X68969500Y-85774486D01*
X68999059Y-85961118D01*
X69057454Y-86140836D01*
X69143240Y-86309199D01*
X69254310Y-86462073D01*
X69387927Y-86595690D01*
X69540801Y-86706760D01*
X69620347Y-86747290D01*
X69709163Y-86792545D01*
X69709165Y-86792545D01*
X69709168Y-86792547D01*
X69805497Y-86823846D01*
X69888881Y-86850940D01*
X70075514Y-86880500D01*
X70075519Y-86880500D01*
X70264486Y-86880500D01*
X70451118Y-86850940D01*
X70468731Y-86845217D01*
X70630832Y-86792547D01*
X70799199Y-86706760D01*
X70952073Y-86595690D01*
X71085690Y-86462073D01*
X71196760Y-86309199D01*
X71282547Y-86140832D01*
X71340940Y-85961118D01*
X71351775Y-85892708D01*
X71370500Y-85774486D01*
X71370500Y-85585513D01*
X71340940Y-85398881D01*
X71282545Y-85219163D01*
X71196759Y-85050800D01*
X71163483Y-85005000D01*
X71085690Y-84897927D01*
X70952073Y-84764310D01*
X70799199Y-84653240D01*
X70784723Y-84645864D01*
X70630836Y-84567454D01*
X70451118Y-84509059D01*
X70264486Y-84479500D01*
X70264481Y-84479500D01*
X70075519Y-84479500D01*
X70075514Y-84479500D01*
X69888881Y-84509059D01*
X69709163Y-84567454D01*
X69540800Y-84653240D01*
X69453579Y-84716610D01*
X69387927Y-84764310D01*
X69387925Y-84764312D01*
X69387924Y-84764312D01*
X69254312Y-84897924D01*
X69254312Y-84897925D01*
X69254310Y-84897927D01*
X69216664Y-84949742D01*
X69143240Y-85050800D01*
X69057454Y-85219163D01*
X68999059Y-85398881D01*
X68969500Y-85585513D01*
X66292999Y-85585513D01*
X66292999Y-85494516D01*
X66292999Y-84507129D01*
X66292998Y-84507123D01*
X66286591Y-84447516D01*
X66236297Y-84312671D01*
X66236293Y-84312664D01*
X66150047Y-84197455D01*
X66150044Y-84197452D01*
X66034835Y-84111206D01*
X66034828Y-84111202D01*
X65899982Y-84060908D01*
X65899983Y-84060908D01*
X65840383Y-84054501D01*
X65840381Y-84054500D01*
X65840373Y-84054500D01*
X65840364Y-84054500D01*
X63839629Y-84054500D01*
X63839623Y-84054501D01*
X63780016Y-84060908D01*
X63645171Y-84111202D01*
X63645164Y-84111206D01*
X63529955Y-84197452D01*
X63529952Y-84197455D01*
X63443706Y-84312664D01*
X63443702Y-84312671D01*
X63433127Y-84341026D01*
X63391256Y-84396960D01*
X63325791Y-84421377D01*
X63257518Y-84406525D01*
X63244060Y-84398011D01*
X63061279Y-84265213D01*
X62857568Y-84161417D01*
X62640124Y-84090765D01*
X62550000Y-84076490D01*
X62550000Y-85064252D01*
X62512292Y-85042482D01*
X62372409Y-85005000D01*
X62227591Y-85005000D01*
X62087708Y-85042482D01*
X62050000Y-85064252D01*
X62050000Y-84076490D01*
X62049999Y-84076490D01*
X61959875Y-84090765D01*
X61742431Y-84161417D01*
X61538723Y-84265211D01*
X61353757Y-84399597D01*
X61192097Y-84561257D01*
X61130627Y-84645864D01*
X61075297Y-84688529D01*
X61005684Y-84694508D01*
X60943889Y-84661902D01*
X60929991Y-84645864D01*
X60868286Y-84560934D01*
X60706566Y-84399214D01*
X60521538Y-84264783D01*
X60317755Y-84160950D01*
X60100248Y-84090278D01*
X59914812Y-84060908D01*
X59874354Y-84054500D01*
X59645646Y-84054500D01*
X59605188Y-84060908D01*
X59419753Y-84090278D01*
X59419750Y-84090278D01*
X59202244Y-84160950D01*
X58998461Y-84264783D01*
X58932550Y-84312671D01*
X58813434Y-84399214D01*
X58813432Y-84399216D01*
X58813431Y-84399216D01*
X58651716Y-84560931D01*
X58651716Y-84560932D01*
X58651714Y-84560934D01*
X58646978Y-84567453D01*
X58517283Y-84745961D01*
X58413450Y-84949744D01*
X58342778Y-85167250D01*
X58342778Y-85167253D01*
X58307000Y-85393146D01*
X58307000Y-85494516D01*
X58287315Y-85561555D01*
X58235662Y-85606778D01*
X54223110Y-87489070D01*
X54223109Y-87489069D01*
X54213149Y-87493741D01*
X54188216Y-87500423D01*
X54141875Y-87527176D01*
X54137110Y-87529412D01*
X54137093Y-87529422D01*
X54093394Y-87549922D01*
X54082054Y-87559480D01*
X54082055Y-87559481D01*
X54073652Y-87566565D01*
X54051284Y-87579480D01*
X54013428Y-87617334D01*
X54009403Y-87620728D01*
X53972506Y-87651833D01*
X53964025Y-87664004D01*
X53949978Y-87680784D01*
X53939481Y-87691282D01*
X53915354Y-87733070D01*
X53909708Y-87741955D01*
X53882113Y-87781559D01*
X53877067Y-87795522D01*
X53873335Y-87805850D01*
X53860423Y-87828216D01*
X53846571Y-87879909D01*
X53844779Y-87884869D01*
X53844777Y-87884870D01*
X53828376Y-87930257D01*
X53828376Y-87930259D01*
X53828376Y-87930262D01*
X53826183Y-87955998D01*
X53819500Y-87980943D01*
X53819500Y-88034468D01*
X53819053Y-88039716D01*
X53814957Y-88087808D01*
X53437527Y-88087808D01*
X53421083Y-79357682D01*
X57210000Y-79357682D01*
X57210000Y-79562317D01*
X57242009Y-79764417D01*
X57305244Y-79959031D01*
X57398141Y-80141350D01*
X57398147Y-80141359D01*
X57430523Y-80185921D01*
X57430524Y-80185922D01*
X58110000Y-79506446D01*
X58110000Y-79512661D01*
X58137259Y-79614394D01*
X58189920Y-79705606D01*
X58264394Y-79780080D01*
X58355606Y-79832741D01*
X58457339Y-79860000D01*
X58463553Y-79860000D01*
X57784076Y-80539474D01*
X57828650Y-80571859D01*
X58010968Y-80664755D01*
X58205582Y-80727990D01*
X58407683Y-80760000D01*
X58612317Y-80760000D01*
X58814417Y-80727990D01*
X59009031Y-80664755D01*
X59191349Y-80571859D01*
X59235921Y-80539474D01*
X58556447Y-79860000D01*
X58562661Y-79860000D01*
X58664394Y-79832741D01*
X58755606Y-79780080D01*
X58830080Y-79705606D01*
X58882741Y-79614394D01*
X58910000Y-79512661D01*
X58910000Y-79506447D01*
X59589474Y-80185921D01*
X59621859Y-80141349D01*
X59649233Y-80087624D01*
X59697207Y-80036827D01*
X59765028Y-80020031D01*
X59831163Y-80042567D01*
X59870203Y-80087621D01*
X59897713Y-80141611D01*
X60018028Y-80307213D01*
X60162786Y-80451971D01*
X60317749Y-80564556D01*
X60328390Y-80572287D01*
X60444607Y-80631503D01*
X60510776Y-80665218D01*
X60510778Y-80665218D01*
X60510781Y-80665220D01*
X60615137Y-80699127D01*
X60705465Y-80728477D01*
X60806557Y-80744488D01*
X60907648Y-80760500D01*
X60907649Y-80760500D01*
X61112351Y-80760500D01*
X61112352Y-80760500D01*
X61314534Y-80728477D01*
X61509219Y-80665220D01*
X61691610Y-80572287D01*
X61784590Y-80504732D01*
X61857213Y-80451971D01*
X61857215Y-80451968D01*
X61857219Y-80451966D01*
X62001966Y-80307219D01*
X62001968Y-80307215D01*
X62001971Y-80307213D01*
X62054732Y-80234590D01*
X62122287Y-80141610D01*
X62215220Y-79959219D01*
X62278477Y-79764534D01*
X62310500Y-79562352D01*
X62310500Y-79357648D01*
X62309708Y-79352648D01*
X62699500Y-79352648D01*
X62699500Y-79557352D01*
X62700292Y-79562351D01*
X62731522Y-79759534D01*
X62794781Y-79954223D01*
X62858691Y-80079653D01*
X62887585Y-80136359D01*
X62887715Y-80136613D01*
X63008028Y-80302213D01*
X63152786Y-80446971D01*
X63307749Y-80559556D01*
X63318390Y-80567287D01*
X63434607Y-80626503D01*
X63500776Y-80660218D01*
X63500778Y-80660218D01*
X63500781Y-80660220D01*
X63605137Y-80694127D01*
X63695465Y-80723477D01*
X63727034Y-80728477D01*
X63897648Y-80755500D01*
X63897649Y-80755500D01*
X64102351Y-80755500D01*
X64102352Y-80755500D01*
X64304534Y-80723477D01*
X64499219Y-80660220D01*
X64681610Y-80567287D01*
X64784617Y-80492449D01*
X64847213Y-80446971D01*
X64847215Y-80446968D01*
X64847219Y-80446966D01*
X64991966Y-80302219D01*
X64991968Y-80302215D01*
X64991971Y-80302213D01*
X65089688Y-80167715D01*
X65112287Y-80136610D01*
X65139795Y-80082621D01*
X65187769Y-80031826D01*
X65255589Y-80015030D01*
X65321725Y-80037567D01*
X65360765Y-80082621D01*
X65388141Y-80136350D01*
X65388147Y-80136359D01*
X65420523Y-80180921D01*
X65420524Y-80180922D01*
X66100000Y-79501446D01*
X66100000Y-79507661D01*
X66127259Y-79609394D01*
X66179920Y-79700606D01*
X66254394Y-79775080D01*
X66345606Y-79827741D01*
X66447339Y-79855000D01*
X66453553Y-79855000D01*
X65774076Y-80534474D01*
X65818650Y-80566859D01*
X66000968Y-80659755D01*
X66195582Y-80722990D01*
X66397683Y-80755000D01*
X66602317Y-80755000D01*
X66804417Y-80722990D01*
X66999031Y-80659755D01*
X67181349Y-80566859D01*
X67225921Y-80534474D01*
X66546447Y-79855000D01*
X66552661Y-79855000D01*
X66654394Y-79827741D01*
X66745606Y-79775080D01*
X66820080Y-79700606D01*
X66872741Y-79609394D01*
X66900000Y-79507661D01*
X66900000Y-79501447D01*
X67579474Y-80180921D01*
X67611859Y-80136349D01*
X67704755Y-79954031D01*
X67767990Y-79759417D01*
X67800000Y-79557317D01*
X67800000Y-79352682D01*
X67767990Y-79150582D01*
X67704755Y-78955968D01*
X67611859Y-78773650D01*
X67579474Y-78729077D01*
X67579474Y-78729076D01*
X66900000Y-79408551D01*
X66900000Y-79402339D01*
X66872741Y-79300606D01*
X66820080Y-79209394D01*
X66745606Y-79134920D01*
X66654394Y-79082259D01*
X66552661Y-79055000D01*
X66546446Y-79055000D01*
X67225922Y-78375524D01*
X67225921Y-78375523D01*
X67181359Y-78343147D01*
X67181350Y-78343141D01*
X66999031Y-78250244D01*
X66804417Y-78187009D01*
X66602317Y-78155000D01*
X66397683Y-78155000D01*
X66195582Y-78187009D01*
X66000968Y-78250244D01*
X65818644Y-78343143D01*
X65774077Y-78375523D01*
X65774077Y-78375524D01*
X66453554Y-79055000D01*
X66447339Y-79055000D01*
X66345606Y-79082259D01*
X66254394Y-79134920D01*
X66179920Y-79209394D01*
X66127259Y-79300606D01*
X66100000Y-79402339D01*
X66100000Y-79408553D01*
X65420524Y-78729077D01*
X65420523Y-78729077D01*
X65388143Y-78773644D01*
X65360765Y-78827378D01*
X65312790Y-78878174D01*
X65244969Y-78894969D01*
X65178834Y-78872431D01*
X65139795Y-78827378D01*
X65114964Y-78778644D01*
X65112287Y-78773390D01*
X65112285Y-78773387D01*
X65112284Y-78773385D01*
X64991971Y-78607786D01*
X64847213Y-78463028D01*
X64681613Y-78342715D01*
X64681612Y-78342714D01*
X64681610Y-78342713D01*
X64624653Y-78313691D01*
X64499223Y-78249781D01*
X64304534Y-78186522D01*
X64129995Y-78158878D01*
X64102352Y-78154500D01*
X63897648Y-78154500D01*
X63873329Y-78158351D01*
X63695465Y-78186522D01*
X63500776Y-78249781D01*
X63318386Y-78342715D01*
X63152786Y-78463028D01*
X63008028Y-78607786D01*
X62887715Y-78773386D01*
X62794781Y-78955776D01*
X62731522Y-79150465D01*
X62706951Y-79305606D01*
X62699500Y-79352648D01*
X62309708Y-79352648D01*
X62283308Y-79185971D01*
X62278477Y-79155465D01*
X62245834Y-79055000D01*
X62215220Y-78960781D01*
X62215218Y-78960778D01*
X62215218Y-78960776D01*
X62175677Y-78883174D01*
X62122287Y-78778390D01*
X62090092Y-78734077D01*
X62001971Y-78612786D01*
X61857213Y-78468028D01*
X61691613Y-78347715D01*
X61691612Y-78347714D01*
X61691610Y-78347713D01*
X61634653Y-78318691D01*
X61509223Y-78254781D01*
X61314534Y-78191522D01*
X61139995Y-78163878D01*
X61112352Y-78159500D01*
X60907648Y-78159500D01*
X60883329Y-78163351D01*
X60705465Y-78191522D01*
X60510776Y-78254781D01*
X60328386Y-78347715D01*
X60162786Y-78468028D01*
X60018028Y-78612786D01*
X59897714Y-78778386D01*
X59870203Y-78832379D01*
X59822227Y-78883174D01*
X59754406Y-78899968D01*
X59688272Y-78877429D01*
X59649234Y-78832376D01*
X59621861Y-78778652D01*
X59589474Y-78734077D01*
X59589474Y-78734076D01*
X58910000Y-79413551D01*
X58910000Y-79407339D01*
X58882741Y-79305606D01*
X58830080Y-79214394D01*
X58755606Y-79139920D01*
X58664394Y-79087259D01*
X58562661Y-79060000D01*
X58556446Y-79060000D01*
X59235922Y-78380524D01*
X59235921Y-78380523D01*
X59191359Y-78348147D01*
X59191350Y-78348141D01*
X59009031Y-78255244D01*
X58814417Y-78192009D01*
X58612317Y-78160000D01*
X58407683Y-78160000D01*
X58205582Y-78192009D01*
X58010968Y-78255244D01*
X57828644Y-78348143D01*
X57784077Y-78380523D01*
X57784077Y-78380524D01*
X58463554Y-79060000D01*
X58457339Y-79060000D01*
X58355606Y-79087259D01*
X58264394Y-79139920D01*
X58189920Y-79214394D01*
X58137259Y-79305606D01*
X58110000Y-79407339D01*
X58110000Y-79413553D01*
X57430524Y-78734077D01*
X57430523Y-78734077D01*
X57398143Y-78778644D01*
X57305244Y-78960968D01*
X57242009Y-79155582D01*
X57210000Y-79357682D01*
X53421083Y-79357682D01*
X53403649Y-70102135D01*
X61139500Y-70102135D01*
X61139500Y-71897870D01*
X61139501Y-71897876D01*
X61145908Y-71957483D01*
X61196202Y-72092328D01*
X61196206Y-72092335D01*
X61282452Y-72207544D01*
X61282455Y-72207547D01*
X61397664Y-72293793D01*
X61397671Y-72293797D01*
X61532517Y-72344091D01*
X61532516Y-72344091D01*
X61539444Y-72344835D01*
X61592127Y-72350500D01*
X63387872Y-72350499D01*
X63447483Y-72344091D01*
X63582331Y-72293796D01*
X63697546Y-72207546D01*
X63783796Y-72092331D01*
X63832810Y-71960916D01*
X63874681Y-71904984D01*
X63940145Y-71880566D01*
X64008418Y-71895417D01*
X64036673Y-71916569D01*
X64150213Y-72030109D01*
X64322179Y-72155048D01*
X64322181Y-72155049D01*
X64322184Y-72155051D01*
X64511588Y-72251557D01*
X64713757Y-72317246D01*
X64923713Y-72350500D01*
X64923714Y-72350500D01*
X65136286Y-72350500D01*
X65136287Y-72350500D01*
X65346243Y-72317246D01*
X65548412Y-72251557D01*
X65737816Y-72155051D01*
X65759789Y-72139086D01*
X65909786Y-72030109D01*
X65909788Y-72030106D01*
X65909792Y-72030104D01*
X66060104Y-71879792D01*
X66060106Y-71879788D01*
X66060109Y-71879786D01*
X66185048Y-71707820D01*
X66185047Y-71707820D01*
X66185051Y-71707816D01*
X66189514Y-71699054D01*
X66237488Y-71648259D01*
X66305308Y-71631463D01*
X66371444Y-71653999D01*
X66410486Y-71699056D01*
X66414951Y-71707820D01*
X66539890Y-71879786D01*
X66690213Y-72030109D01*
X66862179Y-72155048D01*
X66862181Y-72155049D01*
X66862184Y-72155051D01*
X67051588Y-72251557D01*
X67253757Y-72317246D01*
X67463713Y-72350500D01*
X67463714Y-72350500D01*
X67676286Y-72350500D01*
X67676287Y-72350500D01*
X67886243Y-72317246D01*
X68088412Y-72251557D01*
X68277816Y-72155051D01*
X68299789Y-72139086D01*
X68449786Y-72030109D01*
X68449788Y-72030106D01*
X68449792Y-72030104D01*
X68600104Y-71879792D01*
X68600106Y-71879788D01*
X68600109Y-71879786D01*
X68725048Y-71707820D01*
X68725047Y-71707820D01*
X68725051Y-71707816D01*
X68738126Y-71682155D01*
X70620000Y-71682155D01*
X70620000Y-72980000D01*
X71900936Y-72980000D01*
X71889207Y-73008316D01*
X71860000Y-73155147D01*
X71860000Y-73304853D01*
X71889207Y-73451684D01*
X71900936Y-73480000D01*
X70620000Y-73480000D01*
X70620000Y-74777844D01*
X70626401Y-74837372D01*
X70626403Y-74837379D01*
X70676645Y-74972086D01*
X70676649Y-74972093D01*
X70762809Y-75087187D01*
X70762812Y-75087190D01*
X70877906Y-75173350D01*
X70877913Y-75173354D01*
X71012620Y-75223596D01*
X71012627Y-75223598D01*
X71072155Y-75229999D01*
X71072172Y-75230000D01*
X72370000Y-75230000D01*
X72370000Y-73949064D01*
X72398316Y-73960793D01*
X72545147Y-73990000D01*
X72694853Y-73990000D01*
X72841684Y-73960793D01*
X72870000Y-73949064D01*
X72870000Y-75230000D01*
X74167828Y-75230000D01*
X74167844Y-75229999D01*
X74227372Y-75223598D01*
X74227379Y-75223596D01*
X74362086Y-75173354D01*
X74362093Y-75173350D01*
X74477187Y-75087190D01*
X74477190Y-75087187D01*
X74563350Y-74972093D01*
X74563354Y-74972086D01*
X74613596Y-74837379D01*
X74613598Y-74837372D01*
X74619999Y-74777844D01*
X74620000Y-74777827D01*
X74620000Y-73480000D01*
X73339064Y-73480000D01*
X73350793Y-73451684D01*
X73380000Y-73304853D01*
X73380000Y-73155147D01*
X73368806Y-73098872D01*
X75699500Y-73098872D01*
X75699500Y-73361127D01*
X75709057Y-73433713D01*
X75733730Y-73621116D01*
X75740475Y-73646287D01*
X75801602Y-73874418D01*
X75801605Y-73874428D01*
X75901953Y-74116690D01*
X75901958Y-74116700D01*
X76033075Y-74343803D01*
X76192718Y-74551851D01*
X76192726Y-74551860D01*
X76378140Y-74737274D01*
X76378148Y-74737281D01*
X76586196Y-74896924D01*
X76813299Y-75028041D01*
X76813309Y-75028046D01*
X76956096Y-75087190D01*
X77055581Y-75128398D01*
X77308884Y-75196270D01*
X77557188Y-75228960D01*
X77565074Y-75229999D01*
X77568880Y-75230500D01*
X77568887Y-75230500D01*
X77831113Y-75230500D01*
X77831120Y-75230500D01*
X78091116Y-75196270D01*
X78344419Y-75128398D01*
X78586697Y-75028043D01*
X78813803Y-74896924D01*
X79021851Y-74737282D01*
X79021855Y-74737277D01*
X79021860Y-74737274D01*
X79207274Y-74551860D01*
X79207277Y-74551855D01*
X79207282Y-74551851D01*
X79366924Y-74343803D01*
X79498043Y-74116697D01*
X79598398Y-73874419D01*
X79666270Y-73621116D01*
X79690943Y-73433713D01*
X82649500Y-73433713D01*
X82649500Y-73646287D01*
X82682754Y-73856243D01*
X82726214Y-73990000D01*
X82748444Y-74058414D01*
X82844951Y-74247820D01*
X82969890Y-74419786D01*
X83120213Y-74570109D01*
X83292179Y-74695048D01*
X83292181Y-74695049D01*
X83292184Y-74695051D01*
X83481588Y-74791557D01*
X83683757Y-74857246D01*
X83893713Y-74890500D01*
X83893714Y-74890500D01*
X84106286Y-74890500D01*
X84106287Y-74890500D01*
X84316243Y-74857246D01*
X84518412Y-74791557D01*
X84707816Y-74695051D01*
X84729789Y-74679086D01*
X84879786Y-74570109D01*
X84879788Y-74570106D01*
X84879792Y-74570104D01*
X85030104Y-74419792D01*
X85030106Y-74419788D01*
X85030109Y-74419786D01*
X85155048Y-74247820D01*
X85155047Y-74247820D01*
X85155051Y-74247816D01*
X85251557Y-74058412D01*
X85317246Y-73856243D01*
X85350500Y-73646287D01*
X85350500Y-73433713D01*
X85317246Y-73223757D01*
X85251557Y-73021588D01*
X85155051Y-72832184D01*
X85155049Y-72832181D01*
X85155048Y-72832179D01*
X85030109Y-72660213D01*
X84916181Y-72546285D01*
X84882696Y-72484962D01*
X84887680Y-72415270D01*
X84929552Y-72359337D01*
X84960529Y-72342422D01*
X85092086Y-72293354D01*
X85092093Y-72293350D01*
X85207187Y-72207190D01*
X85207190Y-72207187D01*
X85293350Y-72092093D01*
X85293354Y-72092086D01*
X85343596Y-71957379D01*
X85343598Y-71957372D01*
X85349999Y-71897844D01*
X85350000Y-71897827D01*
X85350000Y-71250000D01*
X84433012Y-71250000D01*
X84465925Y-71192993D01*
X84500000Y-71065826D01*
X84500000Y-70934174D01*
X84465925Y-70807007D01*
X84433012Y-70750000D01*
X85350000Y-70750000D01*
X85350000Y-70102172D01*
X85349999Y-70102155D01*
X85343598Y-70042627D01*
X85343596Y-70042620D01*
X85293354Y-69907913D01*
X85293350Y-69907906D01*
X85207190Y-69792812D01*
X85207187Y-69792809D01*
X85092093Y-69706649D01*
X85092086Y-69706645D01*
X84957379Y-69656403D01*
X84957372Y-69656401D01*
X84897844Y-69650000D01*
X84250000Y-69650000D01*
X84250000Y-70566988D01*
X84192993Y-70534075D01*
X84065826Y-70500000D01*
X83934174Y-70500000D01*
X83807007Y-70534075D01*
X83750000Y-70566988D01*
X83750000Y-69650000D01*
X83102155Y-69650000D01*
X83042627Y-69656401D01*
X83042620Y-69656403D01*
X82907913Y-69706645D01*
X82907906Y-69706649D01*
X82792812Y-69792809D01*
X82792809Y-69792812D01*
X82706649Y-69907906D01*
X82706645Y-69907913D01*
X82656403Y-70042620D01*
X82656401Y-70042627D01*
X82650000Y-70102155D01*
X82650000Y-70750000D01*
X83566988Y-70750000D01*
X83534075Y-70807007D01*
X83500000Y-70934174D01*
X83500000Y-71065826D01*
X83534075Y-71192993D01*
X83566988Y-71250000D01*
X82650000Y-71250000D01*
X82650000Y-71897844D01*
X82656401Y-71957372D01*
X82656403Y-71957379D01*
X82706645Y-72092086D01*
X82706649Y-72092093D01*
X82792809Y-72207187D01*
X82792812Y-72207190D01*
X82907906Y-72293350D01*
X82907913Y-72293354D01*
X83039470Y-72342422D01*
X83095404Y-72384293D01*
X83119821Y-72449758D01*
X83104969Y-72518031D01*
X83083819Y-72546285D01*
X82969889Y-72660215D01*
X82844951Y-72832179D01*
X82748444Y-73021585D01*
X82682753Y-73223760D01*
X82652835Y-73412655D01*
X82649500Y-73433713D01*
X79690943Y-73433713D01*
X79700500Y-73361120D01*
X79700500Y-73098880D01*
X79666270Y-72838884D01*
X79598398Y-72585581D01*
X79550523Y-72470000D01*
X79498046Y-72343309D01*
X79498041Y-72343299D01*
X79366924Y-72116196D01*
X79207281Y-71908148D01*
X79207274Y-71908140D01*
X79021860Y-71722726D01*
X79021851Y-71722718D01*
X78813803Y-71563075D01*
X78586700Y-71431958D01*
X78586690Y-71431953D01*
X78344428Y-71331605D01*
X78344421Y-71331603D01*
X78344419Y-71331602D01*
X78091116Y-71263730D01*
X78033339Y-71256123D01*
X77831127Y-71229500D01*
X77831120Y-71229500D01*
X77568880Y-71229500D01*
X77568872Y-71229500D01*
X77337772Y-71259926D01*
X77308884Y-71263730D01*
X77112917Y-71316239D01*
X77055581Y-71331602D01*
X77055571Y-71331605D01*
X76813309Y-71431953D01*
X76813299Y-71431958D01*
X76586196Y-71563075D01*
X76378148Y-71722718D01*
X76192718Y-71908148D01*
X76033075Y-72116196D01*
X75901958Y-72343299D01*
X75901953Y-72343309D01*
X75801605Y-72585571D01*
X75801602Y-72585581D01*
X75735526Y-72832184D01*
X75733730Y-72838885D01*
X75699500Y-73098872D01*
X73368806Y-73098872D01*
X73350793Y-73008316D01*
X73339064Y-72980000D01*
X74620000Y-72980000D01*
X74620000Y-71682172D01*
X74619999Y-71682155D01*
X74613598Y-71622627D01*
X74613596Y-71622620D01*
X74563354Y-71487913D01*
X74563350Y-71487906D01*
X74477190Y-71372812D01*
X74477187Y-71372809D01*
X74362093Y-71286649D01*
X74362086Y-71286645D01*
X74227379Y-71236403D01*
X74227372Y-71236401D01*
X74167844Y-71230000D01*
X72870000Y-71230000D01*
X72870000Y-72510935D01*
X72841684Y-72499207D01*
X72694853Y-72470000D01*
X72545147Y-72470000D01*
X72398316Y-72499207D01*
X72370000Y-72510935D01*
X72370000Y-71230000D01*
X71072155Y-71230000D01*
X71012627Y-71236401D01*
X71012620Y-71236403D01*
X70877913Y-71286645D01*
X70877906Y-71286649D01*
X70762812Y-71372809D01*
X70762809Y-71372812D01*
X70676649Y-71487906D01*
X70676645Y-71487913D01*
X70626403Y-71622620D01*
X70626401Y-71622627D01*
X70620000Y-71682155D01*
X68738126Y-71682155D01*
X68821557Y-71518412D01*
X68887246Y-71316243D01*
X68920500Y-71106287D01*
X68920500Y-70893713D01*
X68887246Y-70683757D01*
X68821557Y-70481588D01*
X68725051Y-70292184D01*
X68725049Y-70292181D01*
X68725048Y-70292179D01*
X68637542Y-70171736D01*
X68600109Y-70120214D01*
X68600105Y-70120209D01*
X68449786Y-69969890D01*
X68277820Y-69844951D01*
X68088414Y-69748444D01*
X68088413Y-69748443D01*
X68088412Y-69748443D01*
X67886243Y-69682754D01*
X67886241Y-69682753D01*
X67886240Y-69682753D01*
X67724957Y-69657208D01*
X67676287Y-69649500D01*
X67463713Y-69649500D01*
X67415042Y-69657208D01*
X67253760Y-69682753D01*
X67051585Y-69748444D01*
X66862179Y-69844951D01*
X66690213Y-69969890D01*
X66539890Y-70120213D01*
X66414949Y-70292182D01*
X66410484Y-70300946D01*
X66362509Y-70351742D01*
X66294688Y-70368536D01*
X66228553Y-70345998D01*
X66189516Y-70300946D01*
X66185050Y-70292182D01*
X66060109Y-70120213D01*
X65909786Y-69969890D01*
X65737820Y-69844951D01*
X65548414Y-69748444D01*
X65548413Y-69748443D01*
X65548412Y-69748443D01*
X65346243Y-69682754D01*
X65346241Y-69682753D01*
X65346240Y-69682753D01*
X65184957Y-69657208D01*
X65136287Y-69649500D01*
X64923713Y-69649500D01*
X64875042Y-69657208D01*
X64713760Y-69682753D01*
X64511585Y-69748444D01*
X64322179Y-69844951D01*
X64150215Y-69969889D01*
X64036673Y-70083431D01*
X63975350Y-70116915D01*
X63905658Y-70111931D01*
X63849725Y-70070059D01*
X63832810Y-70039082D01*
X63783797Y-69907671D01*
X63783793Y-69907664D01*
X63697547Y-69792455D01*
X63697544Y-69792452D01*
X63582335Y-69706206D01*
X63582328Y-69706202D01*
X63447482Y-69655908D01*
X63447483Y-69655908D01*
X63387883Y-69649501D01*
X63387881Y-69649500D01*
X63387873Y-69649500D01*
X63387864Y-69649500D01*
X61592129Y-69649500D01*
X61592123Y-69649501D01*
X61532516Y-69655908D01*
X61397671Y-69706202D01*
X61397664Y-69706206D01*
X61282455Y-69792452D01*
X61282452Y-69792455D01*
X61196206Y-69907664D01*
X61196202Y-69907671D01*
X61145908Y-70042517D01*
X61139501Y-70102116D01*
X61139500Y-70102135D01*
X53403649Y-70102135D01*
X53400889Y-68636959D01*
X53420447Y-68569885D01*
X53473165Y-68524031D01*
X53524767Y-68512728D01*
X86306341Y-68481110D01*
X86373397Y-68500730D01*
G37*
%TD.AperFunction*%
%TD*%
M02*
